<svg width="270" height="105" viewBox="0 0 270 105" fill="none" xmlns="http://www.w3.org/2000/svg">
<g clip-path="url(#clip0_2_56)">
<path d="M225.818 78.75C239.374 78.75 250.364 66.9975 250.364 52.5C250.364 38.0025 239.374 26.25 225.818 26.25C212.262 26.25 201.273 38.0025 201.273 52.5C201.273 66.9975 212.262 78.75 225.818 78.75Z" fill="#F7931A"/>
<path d="M236.847 49.2516C237.328 45.8128 234.879 43.9638 231.531 42.7301L232.617 38.0707L229.966 37.3652L228.908 41.9016C228.211 41.7145 227.496 41.5406 226.783 41.3667L227.849 36.8009L225.198 36.0938L224.112 40.7515C223.535 40.6104 222.968 40.4726 222.419 40.3249L222.422 40.3102L218.764 39.334L218.059 42.3626C218.059 42.3626 220.027 42.8449 219.986 42.8745C221.059 43.1616 221.253 43.9212 221.221 44.5249L219.984 49.8323C220.058 49.852 220.153 49.8816 220.26 49.9259L219.979 49.852L218.246 57.2873C218.114 57.6352 217.781 58.1585 217.029 57.96C217.057 58.001 215.103 57.4465 215.103 57.4465L213.786 60.6916L217.238 61.612C217.879 61.7843 218.508 61.9648 219.126 62.1338L218.03 66.8456L220.679 67.5511L221.765 62.8917C222.489 63.1001 223.192 63.2937 223.879 63.4774L222.796 68.1171L225.447 68.8226L226.544 64.1205C231.066 65.036 234.466 64.6669 235.897 60.293C237.051 56.7722 235.84 54.7395 233.461 53.4155C235.195 52.9889 236.499 51.7699 236.847 49.2516V49.2516ZM230.787 58.3373C229.969 61.8598 224.424 59.955 222.626 59.4776L224.083 53.235C225.881 53.7157 231.645 54.6656 230.787 58.3373ZM231.608 49.2007C230.861 52.4048 226.246 50.7757 224.75 50.377L226.07 44.7169C227.566 45.1155 232.387 45.8588 231.608 49.2007Z" fill="white"/>
</g>
<path d="M19.7291 60.75V59.958C20.3371 59.942 20.7531 59.806 20.9771 59.55C21.2011 59.278 21.3211 58.918 21.3371 58.47C21.3691 58.006 21.3851 57.478 21.3851 56.886V46.806C21.3851 46.374 21.3931 46.006 21.4091 45.702C21.4251 45.382 21.4411 45.118 21.4571 44.91C21.1691 44.926 20.8811 44.942 20.5931 44.958C20.3051 44.974 20.0171 44.99 19.7291 45.006V43.95C20.6091 43.934 21.4891 43.926 22.3691 43.926C23.2651 43.91 24.1931 43.902 25.1531 43.902C27.0091 43.902 28.4571 44.23 29.4971 44.886C30.5531 45.542 31.0651 46.582 31.0331 48.006C31.0331 48.518 30.8811 49.03 30.5771 49.542C30.2891 50.054 29.8491 50.51 29.2571 50.91C28.6811 51.294 27.9531 51.566 27.0731 51.726V51.774C28.8331 51.774 30.1611 52.182 31.0571 52.998C31.9531 53.798 32.4011 54.814 32.4011 56.046C32.4011 57.022 32.1531 57.862 31.6571 58.566C31.1611 59.27 30.4891 59.814 29.6411 60.198C28.7931 60.566 27.8251 60.75 26.7371 60.75H19.7291ZM23.4011 59.79C23.6571 59.806 23.9611 59.822 24.3131 59.838C24.6811 59.838 25.0171 59.838 25.3211 59.838C25.6411 59.838 25.8491 59.838 25.9451 59.838C27.1771 59.838 28.1691 59.534 28.9211 58.926C29.6891 58.302 30.0731 57.39 30.0731 56.19C30.0731 55.214 29.8811 54.454 29.4971 53.91C29.1131 53.366 28.6091 52.982 27.9851 52.758C27.3611 52.534 26.6811 52.422 25.9451 52.422C25.4651 52.422 25.0251 52.43 24.6251 52.446C24.2411 52.446 23.8571 52.462 23.4731 52.494V57.918C23.4731 58.35 23.4651 58.718 23.4491 59.022C23.4491 59.326 23.4331 59.582 23.4011 59.79ZM23.4731 51.558L25.2251 51.51C26.1371 51.494 26.8571 51.31 27.3851 50.958C27.9131 50.59 28.2891 50.134 28.5131 49.59C28.7531 49.046 28.8651 48.478 28.8491 47.886C28.8331 47.022 28.6331 46.366 28.2491 45.918C27.8811 45.47 27.4251 45.166 26.8811 45.006C26.3371 44.846 25.8011 44.766 25.2731 44.766C24.7451 44.766 24.3531 44.838 24.0971 44.982C23.8411 45.126 23.6731 45.366 23.5931 45.702C23.5131 46.038 23.4731 46.502 23.4731 47.094V51.558ZM34.2073 60.03C34.7033 60.03 35.0473 59.91 35.2393 59.67C35.4313 59.414 35.5433 59.07 35.5753 58.638C35.6073 58.19 35.6233 57.678 35.6233 57.102V51.63C35.6233 51.374 35.6313 51.134 35.6473 50.91C35.6633 50.67 35.6873 50.39 35.7193 50.07C35.4313 50.086 35.1433 50.102 34.8553 50.118C34.5833 50.134 34.3033 50.15 34.0153 50.166V49.158C34.7193 49.158 35.2633 49.126 35.6473 49.062C36.0313 48.998 36.3193 48.918 36.5113 48.822C36.7193 48.726 36.8793 48.622 36.9913 48.51H37.6873V58.206C37.6873 58.526 37.6793 58.814 37.6633 59.07C37.6633 59.31 37.6393 59.566 37.5913 59.838C37.8473 59.822 38.0953 59.814 38.3353 59.814C38.5913 59.798 38.8473 59.782 39.1033 59.766V60.75H34.2073V60.03ZM36.5353 46.134C36.1993 46.134 35.9033 45.998 35.6473 45.726C35.3913 45.454 35.2633 45.118 35.2633 44.718C35.2633 44.318 35.3913 43.982 35.6473 43.71C35.9193 43.422 36.2233 43.278 36.5593 43.278C36.9273 43.278 37.2313 43.422 37.4713 43.71C37.7273 43.982 37.8553 44.318 37.8553 44.718C37.8553 45.118 37.7193 45.454 37.4473 45.726C37.1913 45.998 36.8873 46.134 36.5353 46.134ZM45.8443 61.134C45.4763 61.134 45.1003 61.078 44.7163 60.966C44.3323 60.87 43.9723 60.67 43.6363 60.366C43.3163 60.062 43.0603 59.622 42.8683 59.046C42.6763 58.454 42.5803 57.678 42.5803 56.718L42.6283 49.758L40.7803 49.782V48.75C41.1963 48.734 41.6203 48.582 42.0523 48.294C42.4843 47.99 42.8683 47.582 43.2043 47.07C43.5563 46.558 43.7963 45.998 43.9243 45.39H44.7403V48.75H48.7723V49.686L44.7403 49.734L44.6923 56.406C44.6923 57.126 44.7483 57.742 44.8603 58.254C44.9883 58.75 45.1883 59.126 45.4603 59.382C45.7323 59.638 46.0843 59.766 46.5163 59.766C46.9643 59.766 47.3803 59.638 47.7643 59.382C48.1643 59.126 48.5163 58.774 48.8203 58.326L49.4683 58.854C49.1163 59.382 48.7643 59.798 48.4123 60.102C48.0763 60.406 47.7483 60.63 47.4283 60.774C47.1083 60.934 46.8123 61.03 46.5403 61.062C46.2683 61.11 46.0363 61.134 45.8443 61.134ZM56.4695 61.134C55.3975 61.134 54.4055 60.894 53.4935 60.414C52.5975 59.918 51.8775 59.214 51.3335 58.302C50.8055 57.374 50.5415 56.262 50.5415 54.966C50.5415 54.134 50.6935 53.326 50.9975 52.542C51.3015 51.758 51.7255 51.054 52.2695 50.43C52.8295 49.79 53.4935 49.286 54.2615 48.918C55.0295 48.55 55.8775 48.366 56.8055 48.366C57.7015 48.366 58.4775 48.502 59.1335 48.774C59.8055 49.046 60.3255 49.406 60.6935 49.854C61.0615 50.302 61.2455 50.79 61.2455 51.318C61.2455 51.67 61.1495 51.974 60.9575 52.23C60.7655 52.47 60.4855 52.59 60.1175 52.59C59.7175 52.606 59.4295 52.486 59.2535 52.23C59.0935 51.958 59.0135 51.718 59.0135 51.51C59.0135 51.35 59.0375 51.19 59.0855 51.03C59.1335 50.854 59.2295 50.694 59.3735 50.55C59.2455 50.166 59.0215 49.886 58.7015 49.71C58.3815 49.518 58.0455 49.398 57.6935 49.35C57.3575 49.286 57.0775 49.254 56.8535 49.254C55.7655 49.254 54.8455 49.694 54.0935 50.574C53.3575 51.438 52.9895 52.702 52.9895 54.366C52.9895 55.438 53.1575 56.39 53.4935 57.222C53.8455 58.054 54.3335 58.71 54.9575 59.19C55.5815 59.654 56.3015 59.886 57.1175 59.886C57.8695 59.886 58.5895 59.686 59.2775 59.286C59.9655 58.886 60.5015 58.398 60.8855 57.822L61.5095 58.302C61.0935 58.974 60.5895 59.518 59.9975 59.934C59.4215 60.35 58.8215 60.654 58.1975 60.846C57.5895 61.038 57.0135 61.134 56.4695 61.134ZM69.2218 61.134C68.1018 61.134 67.0858 60.878 66.1738 60.366C65.2618 59.838 64.5338 59.118 63.9898 58.206C63.4618 57.278 63.1978 56.222 63.1978 55.038C63.1978 53.774 63.4618 52.638 63.9898 51.63C64.5178 50.622 65.2378 49.83 66.1498 49.254C67.0618 48.662 68.0858 48.366 69.2218 48.366C70.3418 48.366 71.3578 48.638 72.2698 49.182C73.1818 49.71 73.9098 50.43 74.4538 51.342C74.9978 52.254 75.2698 53.294 75.2698 54.462C75.2698 55.694 74.9978 56.822 74.4538 57.846C73.9258 58.854 73.2058 59.654 72.2938 60.246C71.3818 60.838 70.3578 61.134 69.2218 61.134ZM69.4138 60.174C70.2618 60.174 70.9338 59.934 71.4298 59.454C71.9258 58.974 72.2778 58.35 72.4858 57.582C72.7098 56.814 72.8218 56.006 72.8218 55.158C72.8218 54.438 72.7498 53.734 72.6058 53.046C72.4778 52.342 72.2698 51.71 71.9818 51.15C71.6938 50.574 71.3178 50.118 70.8538 49.782C70.4058 49.446 69.8618 49.278 69.2218 49.278C68.3898 49.278 67.7098 49.518 67.1818 49.998C66.6538 50.478 66.2618 51.102 66.0058 51.87C65.7658 52.638 65.6458 53.462 65.6458 54.342C65.6458 55.334 65.7818 56.278 66.0538 57.174C66.3258 58.054 66.7418 58.774 67.3018 59.334C67.8618 59.894 68.5658 60.174 69.4138 60.174ZM77.3088 60.03C77.8048 60.03 78.1488 59.91 78.3408 59.67C78.5328 59.414 78.6448 59.07 78.6768 58.638C78.7088 58.19 78.7248 57.678 78.7248 57.102V51.63C78.7248 51.374 78.7328 51.134 78.7488 50.91C78.7648 50.67 78.7888 50.39 78.8208 50.07C78.5328 50.086 78.2448 50.102 77.9568 50.118C77.6848 50.134 77.4048 50.15 77.1168 50.166V49.158C77.8208 49.158 78.3648 49.126 78.7488 49.062C79.1328 48.998 79.4208 48.918 79.6128 48.822C79.8208 48.726 79.9808 48.622 80.0928 48.51H80.7888V58.206C80.7888 58.526 80.7808 58.814 80.7648 59.07C80.7648 59.31 80.7408 59.566 80.6928 59.838C80.9488 59.822 81.1968 59.814 81.4368 59.814C81.6928 59.798 81.9488 59.782 82.2048 59.766V60.75H77.3088V60.03ZM79.6368 46.134C79.3008 46.134 79.0048 45.998 78.7488 45.726C78.4928 45.454 78.3648 45.118 78.3648 44.718C78.3648 44.318 78.4928 43.982 78.7488 43.71C79.0208 43.422 79.3248 43.278 79.6608 43.278C80.0288 43.278 80.3328 43.422 80.5728 43.71C80.8288 43.982 80.9568 44.318 80.9568 44.718C80.9568 45.118 80.8208 45.454 80.5488 45.726C80.2928 45.998 79.9888 46.134 79.6368 46.134ZM84.0588 60.75V60.03C84.5548 60.03 84.8988 59.91 85.0908 59.67C85.2828 59.414 85.3948 59.07 85.4268 58.638C85.4588 58.19 85.4748 57.678 85.4748 57.102L85.4988 51.63C85.4988 51.374 85.4988 51.118 85.4988 50.862C85.5148 50.606 85.5468 50.342 85.5948 50.07C85.3068 50.086 85.0188 50.102 84.7308 50.118C84.4588 50.134 84.1788 50.15 83.8908 50.166V49.158C84.5948 49.158 85.1228 49.126 85.4748 49.062C85.8428 48.998 86.1148 48.918 86.2908 48.822C86.4668 48.726 86.6108 48.622 86.7228 48.51H87.4188C87.4348 48.622 87.4428 48.75 87.4428 48.894C87.4588 49.038 87.4748 49.198 87.4908 49.374C87.5068 49.55 87.5148 49.75 87.5148 49.974C87.8668 49.67 88.2508 49.398 88.6668 49.158C89.0988 48.918 89.5468 48.726 90.0108 48.582C90.4908 48.438 90.9628 48.366 91.4268 48.366C92.8188 48.366 93.8348 48.806 94.4748 49.686C95.1148 50.55 95.4348 51.902 95.4348 53.742V58.206C95.4348 58.526 95.4268 58.814 95.4108 59.07C95.4108 59.31 95.3868 59.566 95.3388 59.838C95.5948 59.822 95.8428 59.814 96.0828 59.814C96.3388 59.798 96.5948 59.782 96.8508 59.766V60.75H91.9548V60.03C92.4508 60.03 92.7948 59.91 92.9868 59.67C93.1788 59.414 93.2908 59.07 93.3228 58.638C93.3548 58.19 93.3708 57.678 93.3708 57.102V53.742C93.3548 52.366 93.1228 51.326 92.6748 50.622C92.2428 49.918 91.5548 49.574 90.6108 49.59C90.0348 49.606 89.4668 49.758 88.9068 50.046C88.3628 50.334 87.9068 50.702 87.5388 51.15C87.5548 51.278 87.5628 51.422 87.5628 51.582C87.5628 51.742 87.5628 51.91 87.5628 52.086L87.5388 58.206C87.5388 58.526 87.5308 58.814 87.5148 59.07C87.5148 59.31 87.4908 59.566 87.4428 59.838C87.6988 59.822 87.9468 59.814 88.1868 59.814C88.4428 59.798 88.6988 59.782 88.9548 59.766V60.75H84.0588Z" fill="black"/>
<path d="M109.26 45.8L109.76 46.26C109.347 46.8067 108.973 47.3867 108.64 48C108.32 48.6 108.04 49.2267 107.8 49.88C107.56 50.52 107.36 51.1867 107.2 51.88C107.053 52.5733 106.94 53.2867 106.86 54.02C106.78 54.74 106.74 55.4733 106.74 56.22C106.74 56.9667 106.78 57.7 106.86 58.42C106.94 59.1267 107.053 59.8133 107.2 60.48C107.36 61.1467 107.56 61.7933 107.8 62.42C108.04 63.06 108.32 63.6733 108.64 64.26C108.973 64.8467 109.347 65.4133 109.76 65.96L109.26 66.42C108.767 65.9667 108.253 65.3867 107.72 64.68C107.187 63.9867 106.693 63.1933 106.24 62.3C105.787 61.4067 105.42 60.4467 105.14 59.42C104.86 58.3933 104.72 57.3267 104.72 56.22C104.72 55.1133 104.86 54.0333 105.14 52.98C105.42 51.9267 105.787 50.94 106.24 50.02C106.693 49.1 107.187 48.28 107.72 47.56C108.253 46.84 108.767 46.2533 109.26 45.8ZM111.194 61V60.34C111.7 60.3267 112.047 60.2133 112.234 60C112.42 59.7733 112.52 59.4733 112.534 59.1C112.56 58.7133 112.574 58.2733 112.574 57.78V49.38C112.574 49.02 112.58 48.7133 112.594 48.46C112.607 48.1933 112.62 47.9733 112.634 47.8C112.394 47.8133 112.154 47.8267 111.914 47.84C111.674 47.8533 111.434 47.8667 111.194 47.88V47C111.927 46.9867 112.66 46.98 113.394 46.98C114.14 46.9667 114.914 46.96 115.714 46.96C117.26 46.96 118.467 47.2333 119.334 47.78C120.214 48.3267 120.64 49.1933 120.614 50.38C120.614 50.8067 120.487 51.2333 120.234 51.66C119.994 52.0867 119.627 52.4667 119.134 52.8C118.654 53.12 118.047 53.3467 117.314 53.48V53.52C118.78 53.52 119.887 53.86 120.634 54.54C121.38 55.2067 121.754 56.0533 121.754 57.08C121.754 57.8933 121.547 58.5933 121.134 59.18C120.72 59.7667 120.16 60.22 119.454 60.54C118.747 60.8467 117.94 61 117.034 61H111.194ZM114.254 60.2C114.467 60.2133 114.72 60.2267 115.014 60.24C115.32 60.24 115.6 60.24 115.854 60.24C116.12 60.24 116.294 60.24 116.374 60.24C117.4 60.24 118.227 59.9867 118.854 59.48C119.494 58.96 119.814 58.2 119.814 57.2C119.814 56.3867 119.654 55.7533 119.334 55.3C119.014 54.8467 118.594 54.5267 118.074 54.34C117.554 54.1533 116.987 54.06 116.374 54.06C115.974 54.06 115.607 54.0667 115.274 54.08C114.954 54.08 114.634 54.0933 114.314 54.12V58.64C114.314 59 114.307 59.3067 114.294 59.56C114.294 59.8133 114.28 60.0267 114.254 60.2ZM114.314 53.34L115.774 53.3C116.534 53.2867 117.134 53.1333 117.574 52.84C118.014 52.5333 118.327 52.1533 118.514 51.7C118.714 51.2467 118.807 50.7733 118.794 50.28C118.78 49.56 118.614 49.0133 118.294 48.64C117.987 48.2667 117.607 48.0133 117.154 47.88C116.7 47.7467 116.254 47.68 115.814 47.68C115.374 47.68 115.047 47.74 114.834 47.86C114.62 47.98 114.48 48.18 114.414 48.46C114.347 48.74 114.314 49.1267 114.314 49.62V53.34ZM133.939 51.22C133.926 50.4333 133.846 49.78 133.699 49.26C133.553 48.74 133.293 48.3533 132.919 48.1C132.559 47.8333 132.033 47.7067 131.339 47.72H129.639L129.619 58.62C129.619 58.98 129.613 59.2933 129.599 59.56C129.599 59.8133 129.586 60.0267 129.559 60.2C129.839 60.1867 130.113 60.1733 130.379 60.16C130.659 60.1467 130.939 60.1333 131.219 60.12V61H126.519V60.34C127.026 60.3133 127.366 60.1933 127.539 59.98C127.726 59.7667 127.826 59.48 127.839 59.12C127.866 58.7467 127.879 58.3333 127.879 57.88L127.899 47.74L125.839 47.76C124.999 47.76 124.406 48.04 124.059 48.6C123.713 49.16 123.539 50.0333 123.539 51.22H122.799L122.919 47H134.579L134.699 51.22H133.939ZM147.312 51.46C147.179 50.2067 146.739 49.2333 145.992 48.54C145.259 47.8467 144.312 47.5 143.152 47.5C142.446 47.5 141.779 47.6533 141.152 47.96C140.539 48.2533 139.999 48.68 139.532 49.24C139.066 49.8 138.699 50.4733 138.432 51.26C138.166 52.0467 138.032 52.9333 138.032 53.92C138.032 55.1733 138.272 56.28 138.752 57.24C139.232 58.2 139.879 58.9467 140.692 59.48C141.506 60.0133 142.406 60.28 143.392 60.28C144.259 60.28 145.112 60.0867 145.952 59.7C146.792 59.3 147.479 58.7267 148.012 57.98L148.532 58.4C147.959 59.1867 147.339 59.7933 146.672 60.22C146.006 60.6467 145.339 60.9333 144.672 61.08C144.019 61.24 143.419 61.32 142.872 61.32C141.872 61.32 140.952 61.14 140.112 60.78C139.286 60.42 138.566 59.92 137.952 59.28C137.352 58.6267 136.886 57.8733 136.552 57.02C136.232 56.1533 136.072 55.22 136.072 54.22C136.072 53.2733 136.212 52.3533 136.492 51.46C136.786 50.5667 137.219 49.76 137.792 49.04C138.366 48.32 139.086 47.7467 139.952 47.32C140.832 46.8933 141.852 46.68 143.012 46.68C143.759 46.68 144.466 46.78 145.132 46.98C145.799 47.18 146.439 47.4867 147.052 47.9L146.952 46.82H148.032V51.46H147.312ZM149.997 66.42L149.497 65.96C149.91 65.4133 150.277 64.8333 150.597 64.22C150.93 63.62 151.217 62.9933 151.457 62.34C151.697 61.7 151.89 61.0333 152.037 60.34C152.197 59.6467 152.317 58.94 152.397 58.22C152.477 57.4867 152.517 56.7467 152.517 56C152.517 55.2533 152.477 54.5267 152.397 53.82C152.317 53.1 152.197 52.4067 152.037 51.74C151.89 51.0733 151.697 50.4267 151.457 49.8C151.217 49.16 150.93 48.5467 150.597 47.96C150.277 47.3733 149.91 46.8067 149.497 46.26L149.997 45.8C150.49 46.2533 151.003 46.8333 151.537 47.54C152.07 48.2333 152.563 49.0267 153.017 49.92C153.47 50.8133 153.837 51.7733 154.117 52.8C154.397 53.8267 154.537 54.8933 154.537 56C154.537 57.1067 154.397 58.1867 154.117 59.24C153.837 60.2933 153.47 61.28 153.017 62.2C152.563 63.12 152.07 63.94 151.537 64.66C151.003 65.38 150.49 65.9667 149.997 66.42Z" fill="#797979"/>
<defs>
<clipPath id="clip0_2_56">
<rect width="49.0909" height="52.5" fill="white" transform="translate(201.273 26.25)"/>
</clipPath>
</defs>
</svg>
