<svg width="270" height="106" viewBox="0 0 270 106" fill="none" xmlns="http://www.w3.org/2000/svg">
<g clip-path="url(#clip0_4_31)">
<path fill-rule="evenodd" clip-rule="evenodd" d="M210.261 29.6915L201.311 49.9166C201.276 49.9918 201.266 50.0768 201.28 50.1591C201.294 50.2414 201.332 50.3167 201.389 50.374L225.563 75.2929C225.632 75.3638 225.723 75.4033 225.818 75.4033C225.913 75.4033 226.005 75.3638 226.074 75.2929L250.248 50.3756C250.305 50.3183 250.343 50.243 250.357 50.1607C250.371 50.0784 250.36 49.9934 250.326 49.9182L241.375 29.693C241.346 29.6251 241.3 29.5676 241.241 29.5273C241.183 29.487 241.115 29.4657 241.045 29.4659H210.594C210.524 29.4649 210.456 29.4857 210.397 29.5258C210.338 29.5658 210.291 29.6233 210.261 29.6915Z" fill="#50AF95"/>
<path fill-rule="evenodd" clip-rule="evenodd" d="M228.924 51.9936C228.751 52.0076 227.854 52.0651 225.854 52.0651C224.263 52.0651 223.133 52.0138 222.737 51.9936C216.589 51.7026 212 50.5514 212 49.1729C212 47.7945 216.589 46.6448 222.737 46.3492V50.847C223.139 50.8781 224.29 50.9512 225.881 50.9512C227.79 50.9512 228.746 50.8656 228.918 50.8485V46.3523C235.053 46.6464 239.632 47.7976 239.632 49.1729C239.632 50.5482 235.055 51.6995 228.918 51.992L228.924 51.9936ZM228.924 45.8871V41.8623H237.486V35.7248H214.175V41.8623H222.735V45.8856C215.777 46.2294 210.545 47.7121 210.545 49.4888C210.545 51.2655 215.777 52.7466 222.735 53.0919V65.9894H228.923V53.0873C235.865 52.7435 241.089 51.2624 241.089 49.4872C241.089 47.7121 235.869 46.231 228.923 45.8856L228.924 45.8871Z" fill="white"/>
</g>
<path d="M23.642 68.374C23.642 67.9633 23.586 67.6693 23.474 67.492C23.362 67.3147 23.1847 67.2073 22.942 67.17C22.6993 67.1327 22.3773 67.1233 21.976 67.142L20.954 67.184V70.39C20.954 70.642 20.9493 70.8567 20.94 71.034C20.94 71.2113 20.9307 71.3607 20.912 71.482L23.586 71.44C23.9967 71.4307 24.3513 71.3653 24.65 71.244C24.9487 71.1133 25.182 70.8893 25.35 70.572C25.518 70.2547 25.602 69.8207 25.602 69.27H26.078L25.994 72H18.77V71.538C19.1247 71.5193 19.3673 71.44 19.498 71.3C19.6287 71.1507 19.6987 70.95 19.708 70.698C19.7267 70.4367 19.736 70.1427 19.736 69.816V63.768C19.736 63.5813 19.7407 63.404 19.75 63.236C19.7593 63.0587 19.7687 62.9 19.778 62.76C19.61 62.7693 19.442 62.7787 19.274 62.788C19.106 62.7973 18.938 62.8067 18.77 62.816V62.2H25.504L25.574 64.65H25.112C25.112 64.0993 25.028 63.684 24.86 63.404C24.692 63.1147 24.4633 62.9233 24.174 62.83C23.894 62.7273 23.5767 62.6807 23.222 62.69L22.018 62.718C21.6727 62.7273 21.4253 62.7927 21.276 62.914C21.1267 63.0353 21.0333 63.2173 20.996 63.46C20.968 63.6933 20.954 64.0013 20.954 64.384V66.624L23.586 66.638L23.488 65.434H24.104V68.374H23.642ZM27.479 72V71.538C27.8337 71.5193 28.0763 71.44 28.207 71.3C28.3377 71.1507 28.4077 70.95 28.417 70.698C28.4357 70.4367 28.445 70.1427 28.445 69.816V63.768C28.445 63.5813 28.4497 63.404 28.459 63.236C28.4683 63.0587 28.4777 62.9 28.487 62.76C28.319 62.7693 28.151 62.7787 27.983 62.788C27.815 62.7973 27.647 62.8067 27.479 62.816V62.2C28.0017 62.1907 28.529 62.1813 29.061 62.172C29.6023 62.1627 30.1437 62.1673 30.685 62.186C31.5903 62.1953 32.3183 62.3027 32.869 62.508C33.429 62.704 33.8397 62.9887 34.101 63.362C34.3623 63.726 34.493 64.1693 34.493 64.692C34.5023 65.056 34.4323 65.4293 34.283 65.812C34.143 66.1853 33.8817 66.5213 33.499 66.82C33.1257 67.1187 32.5843 67.3427 31.875 67.492C32.0617 67.6227 32.225 67.7907 32.365 67.996C32.505 68.2013 32.6637 68.4393 32.841 68.71L33.793 70.208C33.9517 70.46 34.1057 70.6887 34.255 70.894C34.4043 71.09 34.577 71.2487 34.773 71.37C34.969 71.482 35.2117 71.538 35.501 71.538V72H33.737C33.4663 71.7573 33.2377 71.5147 33.051 71.272C32.8737 71.0293 32.687 70.754 32.491 70.446L31.553 68.948C31.4317 68.752 31.2917 68.528 31.133 68.276C30.9837 68.0147 30.811 67.7953 30.615 67.618C30.4657 67.6273 30.307 67.632 30.139 67.632C29.9803 67.632 29.8217 67.6273 29.663 67.618V70.334C29.663 70.586 29.6583 70.8053 29.649 70.992C29.649 71.1693 29.6397 71.3187 29.621 71.44C29.733 71.4307 29.845 71.426 29.957 71.426C30.069 71.4167 30.181 71.4073 30.293 71.398C30.405 71.3887 30.517 71.384 30.629 71.384V72H27.479ZM30.531 67.1C31.0443 67.0813 31.4923 66.9973 31.875 66.848C32.267 66.6987 32.575 66.4607 32.799 66.134C33.023 65.8073 33.135 65.378 33.135 64.846C33.135 64.4913 33.0837 64.1833 32.981 63.922C32.8877 63.6513 32.7383 63.4273 32.533 63.25C32.3277 63.0727 32.0663 62.942 31.749 62.858C31.4317 62.7647 31.0583 62.718 30.629 62.718C30.2837 62.718 30.041 62.788 29.901 62.928C29.7703 63.068 29.6957 63.264 29.677 63.516C29.6677 63.7587 29.663 64.048 29.663 64.384V67.072C29.8123 67.0813 29.9523 67.0907 30.083 67.1C30.223 67.1093 30.3723 67.1093 30.531 67.1ZM44.012 65.322C43.9187 64.4447 43.6107 63.7633 43.088 63.278C42.5747 62.7927 41.912 62.55 41.1 62.55C40.6053 62.55 40.1387 62.6573 39.7 62.872C39.2707 63.0773 38.8927 63.376 38.566 63.768C38.2393 64.16 37.9827 64.6313 37.796 65.182C37.6093 65.7327 37.516 66.3533 37.516 67.044C37.516 67.9213 37.684 68.696 38.02 69.368C38.356 70.04 38.8087 70.5627 39.378 70.936C39.9473 71.3093 40.5773 71.496 41.268 71.496C41.8747 71.496 42.472 71.3607 43.06 71.09C43.648 70.81 44.1287 70.4087 44.502 69.886L44.866 70.18C44.4647 70.7307 44.0307 71.1553 43.564 71.454C43.0973 71.7527 42.6307 71.9533 42.164 72.056C41.7067 72.168 41.2867 72.224 40.904 72.224C40.204 72.224 39.56 72.098 38.972 71.846C38.3933 71.594 37.8893 71.244 37.46 70.796C37.04 70.3387 36.7133 69.8113 36.48 69.214C36.256 68.6073 36.144 67.954 36.144 67.254C36.144 66.5913 36.242 65.9473 36.438 65.322C36.6433 64.6967 36.9467 64.132 37.348 63.628C37.7493 63.124 38.2533 62.7227 38.86 62.424C39.476 62.1253 40.19 61.976 41.002 61.976C41.5247 61.976 42.0193 62.046 42.486 62.186C42.9527 62.326 43.4007 62.5407 43.83 62.83L43.76 62.074H44.516V65.322H44.012ZM45.9673 68.01V67.03H50.9373V67.954L45.9673 68.01ZM52.0717 72C52.0717 71.5053 52.1464 71.0667 52.2957 70.684C52.4544 70.3013 52.6644 69.9513 52.9257 69.634C53.1871 69.3073 53.4811 68.9947 53.8077 68.696C54.1437 68.388 54.4844 68.066 54.8297 67.73C55.4364 67.1513 55.8751 66.6147 56.1457 66.12C56.4164 65.6253 56.5517 65.1493 56.5517 64.692C56.5517 64.3373 56.5004 63.9967 56.3977 63.67C56.3044 63.334 56.1317 63.0587 55.8797 62.844C55.6277 62.6293 55.2777 62.522 54.8297 62.522C54.4471 62.522 54.1064 62.62 53.8077 62.816C53.5091 63.0027 53.3084 63.236 53.2057 63.516C53.2991 63.6093 53.3644 63.712 53.4017 63.824C53.4391 63.9267 53.4577 64.0293 53.4577 64.132C53.4577 64.216 53.4344 64.3093 53.3877 64.412C53.3504 64.5147 53.2804 64.6033 53.1777 64.678C53.0751 64.7527 52.9397 64.79 52.7717 64.79C52.5664 64.7807 52.4077 64.7013 52.2957 64.552C52.1837 64.4027 52.1277 64.2253 52.1277 64.02C52.1277 63.824 52.1884 63.6093 52.3097 63.376C52.4311 63.1333 52.6131 62.9093 52.8557 62.704C53.1077 62.4893 53.4157 62.3167 53.7797 62.186C54.1437 62.046 54.5684 61.976 55.0537 61.976C55.4271 61.976 55.7864 62.0227 56.1317 62.116C56.4864 62.2 56.8037 62.34 57.0837 62.536C57.3637 62.732 57.5831 62.9933 57.7417 63.32C57.9097 63.6373 57.9937 64.034 57.9937 64.51C57.9937 64.7433 57.9424 64.9953 57.8397 65.266C57.7464 65.5367 57.5877 65.8307 57.3637 66.148C57.1491 66.456 56.8691 66.7873 56.5237 67.142C56.1784 67.4873 55.7537 67.8653 55.2497 68.276C54.6151 68.7987 54.0924 69.2933 53.6817 69.76C53.2804 70.2173 53.0471 70.6093 52.9817 70.936L55.4597 71.006C55.9171 71.0153 56.3184 71.0153 56.6637 71.006C57.0184 70.9967 57.2937 70.9267 57.4897 70.796C57.6951 70.656 57.7977 70.404 57.7977 70.04H58.2177L58.1337 72H52.0717ZM63.3013 72.224C62.5919 72.224 62.0039 72.0747 61.5373 71.776C61.0706 71.468 60.7066 71.0667 60.4453 70.572C60.1839 70.068 59.9973 69.5173 59.8853 68.92C59.7826 68.3227 59.7313 67.73 59.7313 67.142C59.7313 66.554 59.7966 65.9567 59.9273 65.35C60.0673 64.7433 60.2819 64.188 60.5713 63.684C60.8606 63.1707 61.2339 62.76 61.6913 62.452C62.1486 62.1347 62.7039 61.976 63.3573 61.976C64.0386 61.976 64.6033 62.13 65.0513 62.438C65.5086 62.746 65.8679 63.152 66.1293 63.656C66.3999 64.1507 66.5913 64.6967 66.7033 65.294C66.8153 65.8913 66.8713 66.484 66.8713 67.072C66.8713 67.6507 66.8059 68.2433 66.6753 68.85C66.5446 69.4567 66.3393 70.0167 66.0593 70.53C65.7793 71.034 65.4106 71.4447 64.9533 71.762C64.5053 72.07 63.9546 72.224 63.3013 72.224ZM63.3853 71.678C63.7866 71.678 64.1179 71.552 64.3793 71.3C64.6406 71.048 64.8459 70.712 64.9953 70.292C65.1539 69.872 65.2659 69.41 65.3313 68.906C65.3966 68.3927 65.4293 67.8793 65.4293 67.366C65.4293 66.7967 65.3966 66.2273 65.3313 65.658C65.2659 65.0887 65.1539 64.566 64.9953 64.09C64.8366 63.614 64.6219 63.2313 64.3513 62.942C64.0806 62.6527 63.7399 62.508 63.3293 62.508C62.9279 62.508 62.5873 62.634 62.3073 62.886C62.0366 63.138 61.8173 63.474 61.6493 63.894C61.4813 64.314 61.3599 64.7807 61.2853 65.294C61.2106 65.8073 61.1733 66.3253 61.1733 66.848C61.1733 67.24 61.1919 67.6553 61.2293 68.094C61.2666 68.5327 61.3319 68.9667 61.4253 69.396C61.5279 69.816 61.6633 70.1987 61.8313 70.544C61.9993 70.8893 62.2093 71.1647 62.4613 71.37C62.7133 71.5753 63.0213 71.678 63.3853 71.678Z" fill="black"/>
<path d="M31.896 36.264C31.88 35.32 31.784 34.536 31.608 33.912C31.432 33.288 31.12 32.824 30.672 32.52C30.24 32.2 29.608 32.048 28.776 32.064H26.736L26.712 45.144C26.712 45.576 26.704 45.952 26.688 46.272C26.688 46.576 26.672 46.832 26.64 47.04C26.976 47.024 27.304 47.008 27.624 46.992C27.96 46.976 28.296 46.96 28.632 46.944V48H22.992V47.208C23.6 47.176 24.008 47.032 24.216 46.776C24.44 46.52 24.56 46.176 24.576 45.744C24.608 45.296 24.624 44.8 24.624 44.256L24.648 32.088L22.176 32.112C21.168 32.112 20.456 32.448 20.04 33.12C19.624 33.792 19.416 34.84 19.416 36.264H18.528L18.672 31.2H32.664L32.808 36.264H31.896ZM39.0437 48.384C37.9397 48.384 36.9397 48.128 36.0437 47.616C35.1637 47.088 34.4677 46.352 33.9557 45.408C33.4437 44.448 33.1877 43.32 33.1877 42.024C33.1877 40.904 33.4357 39.856 33.9317 38.88C34.4437 37.904 35.1557 37.12 36.0677 36.528C36.9797 35.92 38.0357 35.616 39.2357 35.616C39.9077 35.616 40.5317 35.728 41.1077 35.952C41.6997 36.16 42.2197 36.488 42.6677 36.936C43.1157 37.368 43.4677 37.92 43.7237 38.592C43.9797 39.248 44.1077 40.024 44.1077 40.92L35.6597 41.064C35.6597 42.28 35.7877 43.352 36.0437 44.28C36.3157 45.192 36.7477 45.904 37.3397 46.416C37.9317 46.912 38.6917 47.16 39.6197 47.16C40.1157 47.16 40.6197 47.072 41.1317 46.896C41.6597 46.72 42.1477 46.48 42.5957 46.176C43.0437 45.872 43.4037 45.536 43.6757 45.168L44.2517 45.648C43.8197 46.32 43.2997 46.856 42.6917 47.256C42.0837 47.656 41.4597 47.944 40.8197 48.12C40.1797 48.296 39.5877 48.384 39.0437 48.384ZM35.7317 40.056H41.8517C41.8517 39.48 41.7637 38.928 41.5877 38.4C41.4277 37.856 41.1557 37.416 40.7717 37.08C40.3877 36.728 39.8837 36.552 39.2597 36.552C38.3317 36.552 37.5557 36.832 36.9317 37.392C36.3237 37.936 35.9237 38.824 35.7317 40.056ZM50.5914 48.384C50.2234 48.384 49.8474 48.328 49.4634 48.216C49.0794 48.12 48.7194 47.92 48.3834 47.616C48.0634 47.312 47.8074 46.872 47.6154 46.296C47.4234 45.704 47.3274 44.928 47.3274 43.968L47.3754 37.008L45.5274 37.032V36C45.9434 35.984 46.3674 35.832 46.7994 35.544C47.2314 35.24 47.6154 34.832 47.9514 34.32C48.3034 33.808 48.5434 33.248 48.6714 32.64H49.4874V36H53.5194V36.936L49.4874 36.984L49.4394 43.656C49.4394 44.376 49.4954 44.992 49.6074 45.504C49.7354 46 49.9354 46.376 50.2074 46.632C50.4794 46.888 50.8314 47.016 51.2634 47.016C51.7114 47.016 52.1274 46.888 52.5114 46.632C52.9114 46.376 53.2634 46.024 53.5674 45.576L54.2154 46.104C53.8634 46.632 53.5114 47.048 53.1594 47.352C52.8234 47.656 52.4954 47.88 52.1754 48.024C51.8554 48.184 51.5594 48.28 51.2874 48.312C51.0154 48.36 50.7834 48.384 50.5914 48.384ZM63.0647 47.28C63.5607 47.28 63.9047 47.16 64.0967 46.92C64.2887 46.664 64.4007 46.32 64.4327 45.888C64.4647 45.44 64.4807 44.928 64.4807 44.352V40.992C64.4807 39.616 64.2567 38.584 63.8087 37.896C63.3767 37.208 62.6887 36.872 61.7447 36.888C61.1527 36.904 60.5687 37.048 59.9927 37.32C59.4327 37.592 58.9767 37.944 58.6247 38.376V45.456C58.6247 45.776 58.6167 46.064 58.6007 46.32C58.5847 46.56 58.5527 46.816 58.5047 47.088C58.7607 47.072 59.0087 47.064 59.2487 47.064C59.5047 47.048 59.7607 47.032 60.0167 47.016V48H55.1207V47.28C55.6167 47.28 55.9607 47.16 56.1527 46.92C56.3447 46.664 56.4567 46.32 56.4887 45.888C56.5367 45.44 56.5607 44.928 56.5607 44.352V33C56.5607 32.744 56.5607 32.504 56.5607 32.28C56.5767 32.04 56.6007 31.76 56.6327 31.44C56.3447 31.456 56.0567 31.472 55.7687 31.488C55.4967 31.504 55.2167 31.52 54.9287 31.536V30.528C55.6327 30.528 56.1767 30.496 56.5607 30.432C56.9607 30.368 57.2567 30.288 57.4487 30.192C57.6567 30.096 57.8167 29.992 57.9287 29.88H58.6247V37.2C58.9767 36.896 59.3687 36.632 59.8007 36.408C60.2487 36.168 60.7047 35.976 61.1687 35.832C61.6487 35.688 62.1127 35.616 62.5607 35.616C63.9527 35.616 64.9527 36.056 65.5607 36.936C66.1847 37.8 66.5047 39.152 66.5207 40.992L66.5447 45.456C66.5447 45.776 66.5367 46.064 66.5207 46.32C66.5207 46.56 66.4967 46.816 66.4487 47.088C66.7047 47.072 66.9527 47.064 67.1927 47.064C67.4487 47.048 67.7047 47.032 67.9607 47.016V48H63.0647V47.28ZM75.5359 48.384C74.4319 48.384 73.4319 48.128 72.5359 47.616C71.6559 47.088 70.9599 46.352 70.4479 45.408C69.9359 44.448 69.6799 43.32 69.6799 42.024C69.6799 40.904 69.9279 39.856 70.4239 38.88C70.9359 37.904 71.6479 37.12 72.5599 36.528C73.4719 35.92 74.5279 35.616 75.7279 35.616C76.3999 35.616 77.0239 35.728 77.5999 35.952C78.1919 36.16 78.7119 36.488 79.1599 36.936C79.6079 37.368 79.9599 37.92 80.2159 38.592C80.4719 39.248 80.5999 40.024 80.5999 40.92L72.1519 41.064C72.1519 42.28 72.2799 43.352 72.5359 44.28C72.8079 45.192 73.2399 45.904 73.8319 46.416C74.4239 46.912 75.1839 47.16 76.1119 47.16C76.6079 47.16 77.1119 47.072 77.6239 46.896C78.1519 46.72 78.6399 46.48 79.0879 46.176C79.5359 45.872 79.8959 45.536 80.1679 45.168L80.7439 45.648C80.3119 46.32 79.7919 46.856 79.1839 47.256C78.5759 47.656 77.9519 47.944 77.3119 48.12C76.6719 48.296 76.0799 48.384 75.5359 48.384ZM72.2239 40.056H78.3439C78.3439 39.48 78.2559 38.928 78.0799 38.4C77.9199 37.856 77.6479 37.416 77.2639 37.08C76.8799 36.728 76.3759 36.552 75.7519 36.552C74.8239 36.552 74.0479 36.832 73.4239 37.392C72.8159 37.936 72.4159 38.824 72.2239 40.056ZM82.7357 47.28C83.2317 47.28 83.5757 47.16 83.7677 46.92C83.9597 46.664 84.0717 46.32 84.1037 45.888C84.1357 45.44 84.1517 44.928 84.1517 44.352V38.88C84.1517 38.624 84.1517 38.368 84.1517 38.112C84.1677 37.856 84.1997 37.592 84.2477 37.32C83.9597 37.336 83.6717 37.352 83.3837 37.368C83.1117 37.368 82.8317 37.376 82.5437 37.392V36.408H83.2877C83.9757 36.408 84.4477 36.344 84.7037 36.216C84.9757 36.072 85.1997 35.92 85.3757 35.76H86.0717C86.1037 36.016 86.1277 36.336 86.1437 36.72C86.1597 37.088 86.1757 37.56 86.1917 38.136C86.4317 37.736 86.7597 37.344 87.1757 36.96C87.5917 36.576 88.0557 36.256 88.5677 36C89.0957 35.744 89.6477 35.616 90.2237 35.616C90.6717 35.616 91.0637 35.736 91.3997 35.976C91.7357 36.216 91.9037 36.6 91.9037 37.128C91.9037 37.256 91.8637 37.416 91.7837 37.608C91.7037 37.784 91.5757 37.944 91.3997 38.088C91.2237 38.216 90.9917 38.28 90.7037 38.28C90.3517 38.264 90.0717 38.128 89.8637 37.872C89.6557 37.6 89.5757 37.288 89.6237 36.936C89.2237 36.92 88.8077 37.024 88.3757 37.248C87.9597 37.472 87.5677 37.784 87.1997 38.184C86.8317 38.568 86.5037 39.024 86.2157 39.552L86.2397 45.456C86.2397 45.776 86.2317 46.064 86.2157 46.32C86.2157 46.56 86.1917 46.816 86.1437 47.088C86.3997 47.072 86.6477 47.064 86.8877 47.064C87.1437 47.048 87.3997 47.032 87.6557 47.016V48H82.7357V47.28Z" fill="black"/>
<path d="M102.734 34.32L103.184 34.734C102.812 35.226 102.476 35.748 102.176 36.3C101.888 36.84 101.636 37.404 101.42 37.992C101.204 38.568 101.024 39.168 100.88 39.792C100.748 40.416 100.646 41.058 100.574 41.718C100.502 42.366 100.466 43.026 100.466 43.698C100.466 44.37 100.502 45.03 100.574 45.678C100.646 46.314 100.748 46.932 100.88 47.532C101.024 48.132 101.204 48.714 101.42 49.278C101.636 49.854 101.888 50.406 102.176 50.934C102.476 51.462 102.812 51.972 103.184 52.464L102.734 52.878C102.29 52.47 101.828 51.948 101.348 51.312C100.868 50.688 100.424 49.974 100.016 49.17C99.608 48.366 99.278 47.502 99.026 46.578C98.774 45.654 98.648 44.694 98.648 43.698C98.648 42.702 98.774 41.73 99.026 40.782C99.278 39.834 99.608 38.946 100.016 38.118C100.424 37.29 100.868 36.552 101.348 35.904C101.828 35.256 102.29 34.728 102.734 34.32ZM108.584 34.66C108.144 34.66 107.824 34.7533 107.624 34.94C107.438 35.1267 107.324 35.3467 107.284 35.6C107.244 35.84 107.224 36.0533 107.224 36.24V41.28C107.224 42.0267 107.271 42.7533 107.364 43.46C107.471 44.1533 107.664 44.78 107.944 45.34C108.224 45.9 108.638 46.3467 109.184 46.68C109.744 47.0133 110.471 47.18 111.364 47.18C112.324 47.18 113.104 46.9533 113.704 46.5C114.318 46.0467 114.764 45.42 115.044 44.62C115.338 43.82 115.491 42.9 115.504 41.86L115.564 36.24C115.564 35.9733 115.571 35.72 115.584 35.48C115.598 35.2267 115.611 35 115.624 34.8C115.384 34.8133 115.144 34.8267 114.904 34.84C114.678 34.8533 114.444 34.8667 114.204 34.88V34H117.924V34.66C117.418 34.6733 117.064 34.7867 116.864 35C116.678 35.2133 116.571 35.5 116.544 35.86C116.531 36.22 116.524 36.64 116.524 37.12L116.484 41.76C116.484 42.6267 116.391 43.4533 116.204 44.24C116.018 45.0267 115.711 45.7267 115.284 46.34C114.871 46.9533 114.318 47.44 113.624 47.8C112.944 48.1467 112.104 48.32 111.104 48.32C110.038 48.32 109.138 48.18 108.404 47.9C107.684 47.62 107.104 47.1867 106.664 46.6C106.238 46.0133 105.931 45.2733 105.744 44.38C105.558 43.4867 105.464 42.42 105.464 41.18V37.12C105.464 36.7733 105.471 36.3667 105.484 35.9C105.511 35.42 105.531 35.0533 105.544 34.8C105.304 34.8133 105.064 34.8267 104.824 34.84C104.584 34.84 104.344 34.8467 104.104 34.86V34H108.584V34.66ZM127.483 38.24C127.443 37.6 127.29 36.9933 127.023 36.42C126.757 35.8467 126.37 35.38 125.863 35.02C125.357 34.66 124.71 34.48 123.923 34.48C123.097 34.48 122.463 34.7133 122.023 35.18C121.583 35.6467 121.363 36.1933 121.363 36.82C121.363 37.38 121.523 37.8533 121.843 38.24C122.163 38.6133 122.577 38.9467 123.083 39.24C123.603 39.52 124.15 39.7933 124.723 40.06C125.23 40.2867 125.737 40.5333 126.243 40.8C126.75 41.0533 127.21 41.3467 127.623 41.68C128.037 42.0133 128.363 42.4133 128.603 42.88C128.857 43.3333 128.983 43.88 128.983 44.52C128.983 45.2533 128.797 45.9067 128.423 46.48C128.063 47.0533 127.537 47.5067 126.843 47.84C126.15 48.16 125.303 48.32 124.303 48.32C123.703 48.32 123.083 48.2333 122.443 48.06C121.803 47.8867 121.237 47.6333 120.743 47.3L120.843 48.16H119.803L119.683 43.9H120.463C120.53 45.0733 120.937 45.9667 121.683 46.58C122.43 47.18 123.33 47.48 124.383 47.48C124.903 47.48 125.383 47.3867 125.823 47.2C126.263 47 126.61 46.7133 126.863 46.34C127.13 45.9667 127.263 45.5133 127.263 44.98C127.263 44.38 127.103 43.88 126.783 43.48C126.463 43.08 126.05 42.7333 125.543 42.44C125.037 42.1467 124.497 41.8667 123.923 41.6C123.417 41.3733 122.917 41.1333 122.423 40.88C121.93 40.6267 121.477 40.34 121.063 40.02C120.663 39.6867 120.337 39.2933 120.083 38.84C119.843 38.3867 119.723 37.84 119.723 37.2C119.723 36.8533 119.783 36.48 119.903 36.08C120.023 35.68 120.23 35.3 120.523 34.94C120.83 34.5667 121.243 34.2667 121.763 34.04C122.297 33.8 122.97 33.68 123.783 33.68C124.29 33.68 124.857 33.7533 125.483 33.9C126.123 34.0333 126.717 34.3 127.263 34.7L127.183 33.84H128.203V38.24H127.483ZM130.971 47.34C131.478 47.3133 131.824 47.2 132.011 47C132.198 46.7867 132.298 46.5 132.311 46.14C132.338 45.7667 132.351 45.3467 132.351 44.88V36.24C132.351 35.9733 132.358 35.72 132.371 35.48C132.384 35.2267 132.398 35 132.411 34.8C132.171 34.8133 131.931 34.8267 131.691 34.84C131.451 34.8533 131.211 34.8667 130.971 34.88V34L135.691 33.98C136.891 33.98 137.991 34.12 138.991 34.4C139.991 34.68 140.851 35.1133 141.571 35.7C142.304 36.2733 142.864 37.0067 143.251 37.9C143.651 38.78 143.851 39.82 143.851 41.02C143.851 41.94 143.691 42.82 143.371 43.66C143.051 44.5 142.571 45.2467 141.931 45.9C141.291 46.54 140.491 47.0533 139.531 47.44C138.584 47.8133 137.484 48 136.231 48H130.971V47.34ZM134.091 45.64C134.091 46 134.084 46.3067 134.071 46.56C134.071 46.8133 134.058 47.0267 134.031 47.2C134.391 47.2133 134.718 47.2267 135.011 47.24C135.318 47.24 135.571 47.24 135.771 47.24C135.984 47.24 136.118 47.24 136.171 47.24C137.038 47.24 137.818 47.08 138.511 46.76C139.218 46.44 139.818 46 140.311 45.44C140.818 44.8667 141.204 44.2 141.471 43.44C141.751 42.6667 141.891 41.8333 141.891 40.94C141.891 39.6733 141.658 38.58 141.191 37.66C140.738 36.7267 140.038 36.0067 139.091 35.5C138.144 34.98 136.938 34.72 135.471 34.72C134.978 34.72 134.631 34.82 134.431 35.02C134.244 35.22 134.138 35.5 134.111 35.86C134.098 36.22 134.091 36.64 134.091 37.12V45.64ZM156.353 38.22C156.34 37.4333 156.26 36.78 156.113 36.26C155.967 35.74 155.707 35.3533 155.333 35.1C154.973 34.8333 154.447 34.7067 153.753 34.72H152.053L152.033 45.62C152.033 45.98 152.027 46.2933 152.013 46.56C152.013 46.8133 152 47.0267 151.973 47.2C152.253 47.1867 152.527 47.1733 152.793 47.16C153.073 47.1467 153.353 47.1333 153.633 47.12V48H148.933V47.34C149.44 47.3133 149.78 47.1933 149.953 46.98C150.14 46.7667 150.24 46.48 150.253 46.12C150.28 45.7467 150.293 45.3333 150.293 44.88L150.313 34.74L148.253 34.76C147.413 34.76 146.82 35.04 146.473 35.6C146.127 36.16 145.953 37.0333 145.953 38.22H145.213L145.333 34H156.993L157.113 38.22H156.353ZM158.34 52.878L157.89 52.464C158.262 51.972 158.592 51.45 158.88 50.898C159.18 50.358 159.438 49.794 159.654 49.206C159.87 48.63 160.044 48.03 160.176 47.406C160.32 46.782 160.428 46.146 160.5 45.498C160.572 44.838 160.608 44.172 160.608 43.5C160.608 42.828 160.572 42.174 160.5 41.538C160.428 40.89 160.32 40.266 160.176 39.666C160.044 39.066 159.87 38.484 159.654 37.92C159.438 37.344 159.18 36.792 158.88 36.264C158.592 35.736 158.262 35.226 157.89 34.734L158.34 34.32C158.784 34.728 159.246 35.25 159.726 35.886C160.206 36.51 160.65 37.224 161.058 38.028C161.466 38.832 161.796 39.696 162.048 40.62C162.3 41.544 162.426 42.504 162.426 43.5C162.426 44.496 162.3 45.468 162.048 46.416C161.796 47.364 161.466 48.252 161.058 49.08C160.65 49.908 160.206 50.646 159.726 51.294C159.246 51.942 158.784 52.47 158.34 52.878Z" fill="#797979"/>
<defs>
<clipPath id="clip0_4_31">
<rect width="49.0909" height="45.9375" fill="white" transform="translate(201.273 29.4659)"/>
</clipPath>
</defs>
</svg>
