<svg width="270" height="105" viewBox="0 0 270 105" fill="none" xmlns="http://www.w3.org/2000/svg">
<g clip-path="url(#clip0_4_13)">
<path d="M225.279 25.2281V25.2561C225.303 25.3874 225.303 25.5467 225.303 25.7081V44.818C225.279 44.9256 225.205 44.9514 225.13 45.0053C224.609 45.27 224.114 45.5089 223.594 45.7457C222.874 46.0901 222.131 46.4625 221.413 46.8069L218.81 48.079C218.092 48.4234 217.371 48.7678 216.677 49.1122C215.835 49.5384 214.966 49.9345 214.125 50.3607C213.406 50.7051 212.687 51.0753 211.943 51.4197C211.349 51.7103 210.755 51.9772 210.184 52.2678C210.138 52.2975 210.087 52.3159 210.035 52.3216C210.01 52.3216 210.01 52.3216 209.984 52.2936L210.655 51.1011C211.943 48.8216 213.207 46.568 214.497 44.2885C215.859 41.8497 217.248 39.4109 218.611 36.9721C219.875 34.7185 221.165 32.4669 222.429 30.2133C223.345 28.5688 224.287 26.9264 225.205 25.2841C225.229 25.2281 225.255 25.2023 225.255 25.1506H225.279C225.255 25.1764 225.279 25.2023 225.279 25.2281V25.2281Z" fill="#8A92B2"/>
<path d="M240.499 52.2958L240.523 52.3216L236.88 54.6269L225.428 61.8636C225.378 61.8895 225.327 61.9174 225.303 61.9433C225.229 61.9433 225.229 61.8636 225.229 61.8357V45.2205C225.229 45.1387 225.229 45.0332 225.255 44.9536C225.279 44.846 225.354 44.874 225.428 44.8998C225.75 45.0591 226.096 45.2184 226.418 45.3776C227.384 45.8555 228.352 46.3312 229.319 46.7832C230.164 47.1814 230.979 47.6055 231.822 48.0015C232.666 48.3998 233.509 48.8238 234.35 49.222C235.069 49.5664 235.814 49.9366 236.532 50.281C237.251 50.6254 237.995 50.9978 238.714 51.3422C239.284 51.607 239.853 51.8997 240.425 52.1645C240.425 52.2441 240.449 52.2699 240.499 52.2958Z" fill="#454A75"/>
<path d="M225.279 78.4056C225.279 78.4314 225.255 78.4594 225.255 78.4852H225.229C225.229 78.4314 225.18 78.4056 225.154 78.3518C223.619 76.0465 222.081 73.7132 220.545 71.4078L215.835 64.3046C214.324 62.0229 212.786 59.7176 211.274 57.4381C210.878 56.8268 210.481 56.2435 210.085 55.6343C210.059 55.5805 210.035 55.5547 209.984 55.475C210.059 55.475 210.109 55.5288 210.133 55.5547C212.291 56.9064 214.42 58.2582 216.578 59.61C219.058 61.1748 221.511 62.7397 223.991 64.3024L225.255 65.0988C225.303 65.1505 225.303 65.2043 225.303 65.2581V78.0332C225.303 78.1667 225.303 78.3001 225.279 78.4056V78.4056Z" fill="#8A92B2"/>
<path d="M210.011 52.2958H210.112V52.4042H209.91V52.2958H210.011Z" fill="#808080"/>
<path d="M225.356 25.3895C225.255 25.3895 225.255 25.2819 225.255 25.1743H225.356V25.3895Z" fill="white"/>
<path d="M209.96 52.3474V52.3216C210.753 51.9492 211.522 51.5532 212.315 51.1808C213.331 50.6771 214.348 50.1992 215.364 49.6955C216.133 49.3253 216.926 48.9271 217.693 48.5547C218.834 47.9994 219.949 47.4699 221.091 46.9124C221.857 46.5421 222.626 46.1719 223.419 45.7715C223.965 45.5089 224.534 45.242 225.08 44.9773C225.13 44.9514 225.205 44.9256 225.229 44.8718C225.255 44.8718 225.255 44.8976 225.229 44.9256V61.7582C225.229 61.8378 225.205 61.9174 225.255 61.9691C225.205 62.0488 225.154 61.9691 225.13 61.9433C224.902 61.8118 224.679 61.6703 224.462 61.5192C219.678 58.4971 214.869 55.4492 210.085 52.4271C210.047 52.3947 210.005 52.3679 209.96 52.3474ZM240.449 55.475H240.473C240.473 55.5288 240.425 55.5826 240.399 55.6343C235.838 62.5008 231.277 69.3931 226.716 76.2574C226.245 76.9742 225.75 77.6888 225.279 78.4056C225.255 78.3798 225.255 78.3518 225.255 78.326V65.073C226.295 64.4079 227.312 63.7729 228.352 63.1099C232.368 60.5657 236.383 58.0473 240.374 55.503C240.399 55.5288 240.425 55.503 240.449 55.475V55.475Z" fill="#62688F"/>
<path d="M225.255 44.9256V25.4692C225.255 25.3874 225.229 25.3357 225.279 25.2539C230.311 34.1889 235.343 43.096 240.35 52.031C240.399 52.1085 240.473 52.214 240.499 52.3216C240.151 52.1881 239.829 52.003 239.507 51.8437C239.111 51.6586 238.69 51.4455 238.291 51.2626C238.044 51.127 237.772 51.0215 237.524 50.8902C237.102 50.6771 236.681 50.492 236.26 50.2789C236.008 50.1664 235.759 50.0429 235.516 49.9086L233.879 49.1122C233.608 48.9809 233.336 48.8475 233.038 48.7162L231.847 48.1587C231.599 48.051 231.351 47.9219 231.104 47.7884L229.468 46.992C229.196 46.8607 228.924 46.7273 228.626 46.596L227.435 46.0385C227.163 45.905 226.915 45.7737 226.642 45.6402C226.171 45.4035 225.7 45.1645 225.205 44.9514C225.279 44.9256 225.255 44.9256 225.255 44.9256V44.9256Z" fill="#62688F"/>
</g>
<path d="M140.734 48.32L141.184 48.734C140.812 49.226 140.476 49.748 140.176 50.3C139.888 50.84 139.636 51.404 139.42 51.992C139.204 52.568 139.024 53.168 138.88 53.792C138.748 54.416 138.646 55.058 138.574 55.718C138.502 56.366 138.466 57.026 138.466 57.698C138.466 58.37 138.502 59.03 138.574 59.678C138.646 60.314 138.748 60.932 138.88 61.532C139.024 62.132 139.204 62.714 139.42 63.278C139.636 63.854 139.888 64.406 140.176 64.934C140.476 65.462 140.812 65.972 141.184 66.464L140.734 66.878C140.29 66.47 139.828 65.948 139.348 65.312C138.868 64.688 138.424 63.974 138.016 63.17C137.608 62.366 137.278 61.502 137.026 60.578C136.774 59.654 136.648 58.694 136.648 57.698C136.648 56.702 136.774 55.73 137.026 54.782C137.278 53.834 137.608 52.946 138.016 52.118C138.424 51.29 138.868 50.552 139.348 49.904C139.828 49.256 140.29 48.728 140.734 48.32ZM149.544 56.82C149.544 56.2333 149.464 55.8133 149.304 55.56C149.144 55.3067 148.891 55.1533 148.544 55.1C148.198 55.0467 147.738 55.0333 147.164 55.06L145.704 55.12V59.7C145.704 60.06 145.698 60.3667 145.684 60.62C145.684 60.8733 145.671 61.0867 145.644 61.26L149.464 61.2C150.051 61.1867 150.558 61.0933 150.984 60.92C151.411 60.7333 151.744 60.4133 151.984 59.96C152.224 59.5067 152.344 58.8867 152.344 58.1H153.024L152.904 62H142.584V61.34C143.091 61.3133 143.438 61.2 143.624 61C143.811 60.7867 143.911 60.5 143.924 60.14C143.951 59.7667 143.964 59.3467 143.964 58.88V50.24C143.964 49.9733 143.971 49.72 143.984 49.48C143.998 49.2267 144.011 49 144.024 48.8C143.784 48.8133 143.544 48.8267 143.304 48.84C143.064 48.8533 142.824 48.8667 142.584 48.88V48H152.204L152.304 51.5H151.644C151.644 50.7133 151.524 50.12 151.284 49.72C151.044 49.3067 150.718 49.0333 150.304 48.9C149.904 48.7533 149.451 48.6867 148.944 48.7L147.224 48.74C146.731 48.7533 146.378 48.8467 146.164 49.02C145.951 49.1933 145.818 49.4533 145.764 49.8C145.724 50.1333 145.704 50.5733 145.704 51.12V54.32L149.464 54.34L149.324 52.62H150.204V56.82H149.544ZM165.506 52.22C165.492 51.4333 165.412 50.78 165.266 50.26C165.119 49.74 164.859 49.3533 164.486 49.1C164.126 48.8333 163.599 48.7067 162.906 48.72H161.206L161.186 59.62C161.186 59.98 161.179 60.2933 161.166 60.56C161.166 60.8133 161.152 61.0267 161.126 61.2C161.406 61.1867 161.679 61.1733 161.946 61.16C162.226 61.1467 162.506 61.1333 162.786 61.12V62H158.086V61.34C158.592 61.3133 158.932 61.1933 159.106 60.98C159.292 60.7667 159.392 60.48 159.406 60.12C159.432 59.7467 159.446 59.3333 159.446 58.88L159.466 48.74L157.406 48.76C156.566 48.76 155.972 49.04 155.626 49.6C155.279 50.16 155.106 51.0333 155.106 52.22H154.366L154.486 48H166.146L166.266 52.22H165.506ZM167.819 62V61.34C168.325 61.3133 168.672 61.2 168.859 61C169.045 60.7867 169.145 60.5 169.159 60.14C169.185 59.7667 169.199 59.3467 169.199 58.88V50.24C169.199 49.9733 169.205 49.72 169.219 49.48C169.232 49.2267 169.245 49 169.259 48.8C169.019 48.8133 168.779 48.8267 168.539 48.84C168.299 48.8533 168.059 48.8667 167.819 48.88V48H172.319V48.66C171.825 48.6733 171.479 48.7867 171.279 49C171.092 49.2133 170.985 49.5 170.959 49.86C170.945 50.22 170.939 50.64 170.939 51.12V54.44H178.099V50.24C178.099 49.9733 178.105 49.72 178.119 49.48C178.132 49.2267 178.145 49 178.159 48.8C177.919 48.8133 177.679 48.8267 177.439 48.84C177.199 48.8533 176.959 48.8667 176.719 48.88V48H181.219V48.66C180.725 48.6733 180.379 48.7867 180.179 49C179.992 49.2133 179.885 49.5 179.859 49.86C179.845 50.22 179.839 50.64 179.839 51.12V59.62C179.839 59.98 179.832 60.2933 179.819 60.56C179.819 60.8133 179.805 61.0267 179.779 61.2C180.019 61.1867 180.259 61.1733 180.499 61.16C180.739 61.1467 180.979 61.1333 181.219 61.12V62H176.719V61.34C177.225 61.3133 177.572 61.2 177.759 61C177.945 60.7867 178.045 60.5 178.059 60.14C178.085 59.7667 178.099 59.3467 178.099 58.88V55.24L170.939 55.32V59.62C170.939 59.98 170.932 60.2933 170.919 60.56C170.919 60.8133 170.905 61.0267 170.879 61.2C171.119 61.1867 171.359 61.1733 171.599 61.16C171.839 61.1467 172.079 61.1333 172.319 61.12V62H167.819ZM183.098 66.878L182.648 66.464C183.02 65.972 183.35 65.45 183.638 64.898C183.938 64.358 184.196 63.794 184.412 63.206C184.628 62.63 184.802 62.03 184.934 61.406C185.078 60.782 185.186 60.146 185.258 59.498C185.33 58.838 185.366 58.172 185.366 57.5C185.366 56.828 185.33 56.174 185.258 55.538C185.186 54.89 185.078 54.266 184.934 53.666C184.802 53.066 184.628 52.484 184.412 51.92C184.196 51.344 183.938 50.792 183.638 50.264C183.35 49.736 183.02 49.226 182.648 48.734L183.098 48.32C183.542 48.728 184.004 49.25 184.484 49.886C184.964 50.51 185.408 51.224 185.816 52.028C186.224 52.832 186.554 53.696 186.806 54.62C187.058 55.544 187.184 56.504 187.184 57.5C187.184 58.496 187.058 59.468 186.806 60.416C186.554 61.364 186.224 62.252 185.816 63.08C185.408 63.908 184.964 64.646 184.484 65.294C184.004 65.942 183.542 66.47 183.098 66.878Z" fill="#797979"/>
<path d="M28.0811 55.8465C28.0811 55.1425 27.9851 54.6385 27.7931 54.3345C27.6011 54.0305 27.2971 53.8465 26.8811 53.7825C26.4651 53.7185 25.9131 53.7025 25.2251 53.7345L23.4731 53.8065V59.3025C23.4731 59.7345 23.4651 60.1025 23.4491 60.4065C23.4491 60.7105 23.4331 60.9665 23.4011 61.1745L27.9851 61.1025C28.6891 61.0865 29.2971 60.9745 29.8091 60.7665C30.3211 60.5425 30.7211 60.1585 31.0091 59.6145C31.2971 59.0705 31.4411 58.3265 31.4411 57.3825H32.2571L32.1131 62.0625H19.7291V61.2705C20.3371 61.2385 20.7531 61.1025 20.9771 60.8625C21.2011 60.6065 21.3211 60.2625 21.3371 59.8305C21.3691 59.3825 21.3851 58.8785 21.3851 58.3185V47.9505C21.3851 47.6305 21.3931 47.3265 21.4091 47.0385C21.4251 46.7345 21.4411 46.4625 21.4571 46.2225C21.1691 46.2385 20.8811 46.2545 20.5931 46.2705C20.3051 46.2865 20.0171 46.3025 19.7291 46.3185V45.2625H31.2731L31.3931 49.4625H30.6011C30.6011 48.5185 30.4571 47.8065 30.1691 47.3265C29.8811 46.8305 29.4891 46.5025 28.9931 46.3425C28.5131 46.1665 27.9691 46.0865 27.3611 46.1025L25.2971 46.1505C24.7051 46.1665 24.2811 46.2785 24.0251 46.4865C23.7691 46.6945 23.6091 47.0065 23.5451 47.4225C23.4971 47.8225 23.4731 48.3505 23.4731 49.0065V52.8465L27.9851 52.8705L27.8171 50.8065H28.8731V55.8465H28.0811ZM38.7662 62.4465C38.3982 62.4465 38.0222 62.3905 37.6382 62.2785C37.2542 62.1825 36.8942 61.9825 36.5582 61.6785C36.2382 61.3745 35.9822 60.9345 35.7902 60.3585C35.5982 59.7665 35.5022 58.9905 35.5022 58.0305L35.5502 51.0705L33.7022 51.0945V50.0625C34.1182 50.0465 34.5422 49.8945 34.9742 49.6065C35.4062 49.3025 35.7902 48.8945 36.1262 48.3825C36.4782 47.8705 36.7182 47.3105 36.8462 46.7025H37.6622V50.0625H41.6942V50.9985L37.6622 51.0465L37.6142 57.7185C37.6142 58.4385 37.6702 59.0545 37.7822 59.5665C37.9102 60.0625 38.1102 60.4385 38.3822 60.6945C38.6542 60.9505 39.0062 61.0785 39.4382 61.0785C39.8862 61.0785 40.3022 60.9505 40.6862 60.6945C41.0862 60.4385 41.4382 60.0865 41.7422 59.6385L42.3902 60.1665C42.0382 60.6945 41.6862 61.1105 41.3342 61.4145C40.9982 61.7185 40.6702 61.9425 40.3502 62.0865C40.0302 62.2465 39.7342 62.3425 39.4622 62.3745C39.1902 62.4225 38.9582 62.4465 38.7662 62.4465ZM51.2394 61.3425C51.7354 61.3425 52.0794 61.2225 52.2714 60.9825C52.4634 60.7265 52.5754 60.3825 52.6074 59.9505C52.6394 59.5025 52.6554 58.9905 52.6554 58.4145V55.0545C52.6554 53.6785 52.4314 52.6465 51.9834 51.9585C51.5514 51.2705 50.8634 50.9345 49.9194 50.9505C49.3274 50.9665 48.7434 51.1105 48.1674 51.3825C47.6074 51.6545 47.1514 52.0065 46.7994 52.4385V59.5185C46.7994 59.8385 46.7914 60.1265 46.7754 60.3825C46.7594 60.6225 46.7274 60.8785 46.6794 61.1505C46.9354 61.1345 47.1834 61.1265 47.4234 61.1265C47.6794 61.1105 47.9354 61.0945 48.1914 61.0785V62.0625H43.2954V61.3425C43.7914 61.3425 44.1354 61.2225 44.3274 60.9825C44.5194 60.7265 44.6314 60.3825 44.6634 59.9505C44.7114 59.5025 44.7354 58.9905 44.7354 58.4145V47.0625C44.7354 46.8065 44.7354 46.5665 44.7354 46.3425C44.7514 46.1025 44.7754 45.8225 44.8074 45.5025C44.5194 45.5185 44.2314 45.5345 43.9434 45.5505C43.6714 45.5665 43.3914 45.5825 43.1034 45.5985V44.5905C43.8074 44.5905 44.3514 44.5585 44.7354 44.4945C45.1354 44.4305 45.4314 44.3505 45.6234 44.2545C45.8314 44.1585 45.9914 44.0545 46.1034 43.9425H46.7994V51.2625C47.1514 50.9585 47.5434 50.6945 47.9754 50.4705C48.4234 50.2305 48.8794 50.0385 49.3434 49.8945C49.8234 49.7505 50.2874 49.6785 50.7354 49.6785C52.1274 49.6785 53.1274 50.1185 53.7354 50.9985C54.3594 51.8625 54.6794 53.2145 54.6954 55.0545L54.7194 59.5185C54.7194 59.8385 54.7114 60.1265 54.6954 60.3825C54.6954 60.6225 54.6714 60.8785 54.6234 61.1505C54.8794 61.1345 55.1274 61.1265 55.3674 61.1265C55.6234 61.1105 55.8794 61.0945 56.1354 61.0785V62.0625H51.2394V61.3425ZM63.7106 62.4465C62.6066 62.4465 61.6066 62.1905 60.7106 61.6785C59.8306 61.1505 59.1346 60.4145 58.6226 59.4705C58.1106 58.5105 57.8546 57.3825 57.8546 56.0865C57.8546 54.9665 58.1026 53.9185 58.5986 52.9425C59.1106 51.9665 59.8226 51.1825 60.7346 50.5905C61.6466 49.9825 62.7026 49.6785 63.9026 49.6785C64.5746 49.6785 65.1986 49.7905 65.7746 50.0145C66.3666 50.2225 66.8866 50.5505 67.3346 50.9985C67.7826 51.4305 68.1346 51.9825 68.3906 52.6545C68.6466 53.3105 68.7746 54.0865 68.7746 54.9825L60.3266 55.1265C60.3266 56.3425 60.4546 57.4145 60.7106 58.3425C60.9826 59.2545 61.4146 59.9665 62.0066 60.4785C62.5986 60.9745 63.3586 61.2225 64.2866 61.2225C64.7826 61.2225 65.2866 61.1345 65.7986 60.9585C66.3266 60.7825 66.8146 60.5425 67.2626 60.2385C67.7106 59.9345 68.0706 59.5985 68.3426 59.2305L68.9186 59.7105C68.4866 60.3825 67.9666 60.9185 67.3586 61.3185C66.7506 61.7185 66.1266 62.0065 65.4866 62.1825C64.8466 62.3585 64.2546 62.4465 63.7106 62.4465ZM60.3986 54.1185H66.5186C66.5186 53.5425 66.4306 52.9905 66.2546 52.4625C66.0946 51.9185 65.8226 51.4785 65.4386 51.1425C65.0546 50.7905 64.5506 50.6145 63.9266 50.6145C62.9986 50.6145 62.2226 50.8945 61.5986 51.4545C60.9906 51.9985 60.5906 52.8865 60.3986 54.1185ZM70.9104 61.3425C71.4064 61.3425 71.7504 61.2225 71.9424 60.9825C72.1344 60.7265 72.2464 60.3825 72.2784 59.9505C72.3104 59.5025 72.3264 58.9905 72.3264 58.4145V52.9425C72.3264 52.6865 72.3264 52.4305 72.3264 52.1745C72.3424 51.9185 72.3744 51.6545 72.4224 51.3825C72.1344 51.3985 71.8464 51.4145 71.5584 51.4305C71.2864 51.4305 71.0064 51.4385 70.7184 51.4545V50.4705H71.4624C72.1504 50.4705 72.6224 50.4065 72.8784 50.2785C73.1504 50.1345 73.3744 49.9825 73.5504 49.8225H74.2464C74.2784 50.0785 74.3024 50.3985 74.3184 50.7825C74.3344 51.1505 74.3504 51.6225 74.3664 52.1985C74.6064 51.7985 74.9344 51.4065 75.3504 51.0225C75.7664 50.6385 76.2304 50.3185 76.7424 50.0625C77.2704 49.8065 77.8224 49.6785 78.3984 49.6785C78.8464 49.6785 79.2384 49.7985 79.5744 50.0385C79.9104 50.2785 80.0784 50.6625 80.0784 51.1905C80.0784 51.3185 80.0384 51.4785 79.9584 51.6705C79.8784 51.8465 79.7504 52.0065 79.5744 52.1505C79.3984 52.2785 79.1664 52.3425 78.8784 52.3425C78.5264 52.3265 78.2464 52.1905 78.0384 51.9345C77.8304 51.6625 77.7504 51.3505 77.7984 50.9985C77.3984 50.9825 76.9824 51.0865 76.5504 51.3105C76.1344 51.5345 75.7424 51.8465 75.3744 52.2465C75.0064 52.6305 74.6784 53.0865 74.3904 53.6145L74.4144 59.5185C74.4144 59.8385 74.4064 60.1265 74.3904 60.3825C74.3904 60.6225 74.3664 60.8785 74.3184 61.1505C74.5744 61.1345 74.8224 61.1265 75.0624 61.1265C75.3184 61.1105 75.5744 61.0945 75.8304 61.0785V62.0625H70.9104V61.3425ZM86.9372 62.4465C85.8332 62.4465 84.8332 62.1905 83.9372 61.6785C83.0572 61.1505 82.3612 60.4145 81.8492 59.4705C81.3372 58.5105 81.0812 57.3825 81.0812 56.0865C81.0812 54.9665 81.3292 53.9185 81.8252 52.9425C82.3372 51.9665 83.0492 51.1825 83.9612 50.5905C84.8732 49.9825 85.9292 49.6785 87.1292 49.6785C87.8012 49.6785 88.4252 49.7905 89.0012 50.0145C89.5932 50.2225 90.1132 50.5505 90.5612 50.9985C91.0092 51.4305 91.3612 51.9825 91.6172 52.6545C91.8732 53.3105 92.0012 54.0865 92.0012 54.9825L83.5532 55.1265C83.5532 56.3425 83.6812 57.4145 83.9372 58.3425C84.2092 59.2545 84.6412 59.9665 85.2332 60.4785C85.8252 60.9745 86.5852 61.2225 87.5132 61.2225C88.0092 61.2225 88.5132 61.1345 89.0252 60.9585C89.5532 60.7825 90.0412 60.5425 90.4892 60.2385C90.9372 59.9345 91.2972 59.5985 91.5692 59.2305L92.1452 59.7105C91.7132 60.3825 91.1932 60.9185 90.5852 61.3185C89.9772 61.7185 89.3532 62.0065 88.7132 62.1825C88.0732 62.3585 87.4812 62.4465 86.9372 62.4465ZM83.6252 54.1185H89.7452C89.7452 53.5425 89.6572 52.9905 89.4812 52.4625C89.3212 51.9185 89.0492 51.4785 88.6652 51.1425C88.2812 50.7905 87.7772 50.6145 87.1532 50.6145C86.2252 50.6145 85.4492 50.8945 84.8252 51.4545C84.2172 51.9985 83.8172 52.8865 83.6252 54.1185ZM99.201 62.4465C98.337 62.4465 97.609 62.2865 97.017 61.9665C96.441 61.6465 96.001 61.1025 95.697 60.3345C95.409 59.5665 95.265 58.5265 95.265 57.2145V52.9425C95.265 52.6865 95.265 52.4305 95.265 52.1745C95.281 51.9185 95.313 51.6545 95.361 51.3825C95.089 51.3985 94.809 51.4145 94.521 51.4305C94.249 51.4305 93.977 51.4385 93.705 51.4545V50.4705H94.449C95.137 50.4705 95.633 50.4065 95.937 50.2785C96.257 50.1345 96.505 49.9825 96.681 49.8225H97.377V57.1425C97.377 58.5185 97.569 59.5505 97.953 60.2385C98.353 60.9105 99.025 61.2385 99.969 61.2225C100.577 61.2065 101.153 61.0225 101.697 60.6705C102.257 60.3025 102.705 59.8705 103.041 59.3745V53.2065C103.041 52.8225 103.049 52.4945 103.065 52.2225C103.081 51.9345 103.113 51.6545 103.161 51.3825C102.873 51.3985 102.585 51.4145 102.297 51.4305C102.009 51.4305 101.721 51.4385 101.433 51.4545V50.4705H102.177C102.865 50.4705 103.361 50.4065 103.665 50.2785C103.985 50.1345 104.233 49.9825 104.409 49.8225H105.105L105.081 58.8945C105.081 59.1505 105.073 59.5105 105.057 59.9745C105.041 60.4385 105.017 60.8305 104.985 61.1505C105.273 61.1345 105.561 61.1185 105.849 61.1025C106.137 61.0865 106.425 61.0705 106.713 61.0545V62.0625H103.281C103.233 61.7905 103.193 61.5345 103.161 61.2945C103.145 61.0545 103.129 60.8305 103.113 60.6225C102.617 61.1185 102.017 61.5505 101.313 61.9185C100.609 62.2705 99.905 62.4465 99.201 62.4465ZM108.457 62.0625V61.3425C108.953 61.3425 109.297 61.2225 109.489 60.9825C109.681 60.7265 109.793 60.3825 109.825 59.9505C109.857 59.5025 109.873 58.9905 109.873 58.4145V52.9425C109.873 52.6865 109.873 52.4305 109.873 52.1745C109.889 51.9185 109.921 51.6545 109.969 51.3825C109.681 51.3985 109.393 51.4145 109.105 51.4305C108.833 51.4465 108.553 51.4625 108.265 51.4785V50.4705C108.969 50.4705 109.497 50.4385 109.849 50.3745C110.217 50.3105 110.489 50.2305 110.665 50.1345C110.841 50.0385 110.985 49.9345 111.097 49.8225H111.793C111.825 49.9825 111.841 50.1665 111.841 50.3745C111.857 50.5825 111.873 50.8225 111.889 51.0945C112.369 50.6785 112.921 50.3425 113.545 50.0865C114.169 49.8145 114.793 49.6785 115.417 49.6785C116.217 49.6785 116.889 49.8225 117.433 50.1105C117.977 50.3985 118.401 50.7905 118.705 51.2865C119.249 50.8385 119.873 50.4625 120.577 50.1585C121.297 49.8385 122.001 49.6785 122.689 49.6785C124.081 49.6785 125.105 50.1025 125.761 50.9505C126.417 51.7825 126.729 53.1505 126.697 55.0545L126.673 59.5185C126.673 59.8385 126.665 60.1265 126.649 60.3825C126.649 60.6225 126.625 60.8785 126.577 61.1505C126.833 61.1345 127.081 61.1265 127.321 61.1265C127.577 61.1105 127.833 61.0945 128.089 61.0785V62.0625H123.193V61.3425C123.689 61.3425 124.033 61.2225 124.225 60.9825C124.417 60.7265 124.529 60.3825 124.561 59.9505C124.593 59.5025 124.609 58.9905 124.609 58.4145V55.0545C124.609 53.6785 124.385 52.6465 123.937 51.9585C123.505 51.2705 122.817 50.9345 121.873 50.9505C121.377 50.9505 120.881 51.0625 120.385 51.2865C119.889 51.5105 119.457 51.7905 119.089 52.1265C119.169 52.3825 119.225 52.6625 119.257 52.9665C119.305 53.2545 119.329 53.5585 119.329 53.8785C119.313 54.8065 119.305 55.7425 119.305 56.6865C119.305 57.6305 119.297 58.5745 119.281 59.5185C119.281 59.8385 119.273 60.1265 119.257 60.3825C119.257 60.6225 119.233 60.8785 119.185 61.1505C119.441 61.1345 119.689 61.1265 119.929 61.1265C120.185 61.1105 120.441 61.0945 120.697 61.0785V62.0625H115.801V61.3425C116.297 61.3425 116.633 61.2225 116.809 60.9825C117.001 60.7265 117.113 60.3825 117.145 59.9505C117.193 59.5025 117.217 58.9905 117.217 58.4145L117.241 55.0545C117.257 53.6785 117.057 52.6385 116.641 51.9345C116.225 51.2305 115.545 50.8865 114.601 50.9025C114.105 50.9025 113.617 51.0145 113.137 51.2385C112.657 51.4465 112.249 51.7185 111.913 52.0545C111.913 52.2465 111.913 52.4545 111.913 52.6785C111.929 52.8865 111.937 53.1105 111.937 53.3505V59.5185C111.937 59.8385 111.929 60.1265 111.913 60.3825C111.913 60.6225 111.889 60.8785 111.841 61.1505C112.097 61.1345 112.345 61.1265 112.585 61.1265C112.841 61.1105 113.097 61.0945 113.353 61.0785V62.0625H108.457Z" fill="black"/>
<defs>
<clipPath id="clip0_4_13">
<rect width="50.3182" height="53.8125" fill="white" transform="translate(200.045 24.9375)"/>
</clipPath>
</defs>
</svg>
