<svg width="270" height="107" viewBox="0 0 270 107" fill="none" xmlns="http://www.w3.org/2000/svg">
<g clip-path="url(#clip0_2_55)">
<path d="M209.247 63.6324C209.543 63.3167 209.95 63.1325 210.382 63.1325H249.561C250.277 63.1325 250.635 64.0534 250.129 64.5927L242.39 72.841C242.093 73.1567 241.686 73.3409 241.254 73.3409H202.075C201.359 73.3409 201.001 72.42 201.507 71.8807L209.247 63.6324Z" fill="url(#paint0_linear_2_55)"/>
<path d="M209.247 32.8362C209.555 32.5205 209.963 32.3363 210.382 32.3363H249.561C250.277 32.3363 250.635 33.2572 250.129 33.7966L242.39 42.0448C242.093 42.3605 241.686 42.5447 241.254 42.5447H202.075C201.359 42.5447 201.001 41.6239 201.507 41.0845L209.247 32.8362Z" fill="url(#paint1_linear_2_55)"/>
<path d="M242.39 48.1356C242.093 47.8199 241.686 47.6357 241.254 47.6357H202.075C201.359 47.6357 201.001 48.5566 201.507 49.096L209.247 57.3442C209.543 57.66 209.95 57.8441 210.382 57.8441H249.561C250.277 57.8441 250.635 56.9233 250.129 56.3839L242.39 48.1356Z" fill="url(#paint2_linear_2_55)"/>
</g>
<path d="M102.734 49.32L103.184 49.734C102.812 50.226 102.476 50.748 102.176 51.3C101.888 51.84 101.636 52.404 101.42 52.992C101.204 53.568 101.024 54.168 100.88 54.792C100.748 55.416 100.646 56.058 100.574 56.718C100.502 57.366 100.466 58.026 100.466 58.698C100.466 59.37 100.502 60.03 100.574 60.678C100.646 61.314 100.748 61.932 100.88 62.532C101.024 63.132 101.204 63.714 101.42 64.278C101.636 64.854 101.888 65.406 102.176 65.934C102.476 66.462 102.812 66.972 103.184 67.464L102.734 67.878C102.29 67.47 101.828 66.948 101.348 66.312C100.868 65.688 100.424 64.974 100.016 64.17C99.608 63.366 99.278 62.502 99.026 61.578C98.774 60.654 98.648 59.694 98.648 58.698C98.648 57.702 98.774 56.73 99.026 55.782C99.278 54.834 99.608 53.946 100.016 53.118C100.424 52.29 100.868 51.552 101.348 50.904C101.828 50.256 102.29 49.728 102.734 49.32ZM112.444 53.24C112.404 52.6 112.251 51.9933 111.984 51.42C111.718 50.8467 111.331 50.38 110.824 50.02C110.318 49.66 109.671 49.48 108.884 49.48C108.058 49.48 107.424 49.7133 106.984 50.18C106.544 50.6467 106.324 51.1933 106.324 51.82C106.324 52.38 106.484 52.8533 106.804 53.24C107.124 53.6133 107.538 53.9467 108.044 54.24C108.564 54.52 109.111 54.7933 109.684 55.06C110.191 55.2867 110.698 55.5333 111.204 55.8C111.711 56.0533 112.171 56.3467 112.584 56.68C112.998 57.0133 113.324 57.4133 113.564 57.88C113.818 58.3333 113.944 58.88 113.944 59.52C113.944 60.2533 113.758 60.9067 113.384 61.48C113.024 62.0533 112.498 62.5067 111.804 62.84C111.111 63.16 110.264 63.32 109.264 63.32C108.664 63.32 108.044 63.2333 107.404 63.06C106.764 62.8867 106.198 62.6333 105.704 62.3L105.804 63.16H104.764L104.644 58.9H105.424C105.491 60.0733 105.898 60.9667 106.644 61.58C107.391 62.18 108.291 62.48 109.344 62.48C109.864 62.48 110.344 62.3867 110.784 62.2C111.224 62 111.571 61.7133 111.824 61.34C112.091 60.9667 112.224 60.5133 112.224 59.98C112.224 59.38 112.064 58.88 111.744 58.48C111.424 58.08 111.011 57.7333 110.504 57.44C109.998 57.1467 109.458 56.8667 108.884 56.6C108.378 56.3733 107.878 56.1333 107.384 55.88C106.891 55.6267 106.438 55.34 106.024 55.02C105.624 54.6867 105.298 54.2933 105.044 53.84C104.804 53.3867 104.684 52.84 104.684 52.2C104.684 51.8533 104.744 51.48 104.864 51.08C104.984 50.68 105.191 50.3 105.484 49.94C105.791 49.5667 106.204 49.2667 106.724 49.04C107.258 48.8 107.931 48.68 108.744 48.68C109.251 48.68 109.818 48.7533 110.444 48.9C111.084 49.0333 111.678 49.3 112.224 49.7L112.144 48.84H113.164V53.24H112.444ZM122.872 63.32C121.605 63.32 120.519 63.1067 119.612 62.68C118.705 62.2533 117.965 61.6867 117.392 60.98C116.832 60.26 116.419 59.4667 116.152 58.6C115.885 57.7333 115.752 56.8667 115.752 56C115.752 55.16 115.892 54.3133 116.172 53.46C116.452 52.5933 116.879 51.8 117.452 51.08C118.039 50.36 118.765 49.78 119.632 49.34C120.512 48.9 121.539 48.68 122.712 48.68C123.939 48.68 124.999 48.9 125.892 49.34C126.785 49.78 127.519 50.3667 128.092 51.1C128.679 51.82 129.112 52.6067 129.392 53.46C129.685 54.3133 129.832 55.16 129.832 56C129.832 56.8267 129.692 57.6733 129.412 58.54C129.132 59.3933 128.699 60.1867 128.112 60.92C127.539 61.64 126.819 62.22 125.952 62.66C125.085 63.1 124.059 63.32 122.872 63.32ZM122.912 62.5C123.739 62.5 124.459 62.3267 125.072 61.98C125.685 61.62 126.192 61.1467 126.592 60.56C127.005 59.96 127.312 59.3 127.512 58.58C127.725 57.8467 127.832 57.1133 127.832 56.38C127.832 55.5533 127.719 54.7333 127.492 53.92C127.265 53.1067 126.932 52.3667 126.492 51.7C126.052 51.0333 125.505 50.5 124.852 50.1C124.212 49.6867 123.479 49.48 122.652 49.48C121.825 49.48 121.099 49.66 120.472 50.02C119.859 50.38 119.345 50.86 118.932 51.46C118.532 52.0467 118.225 52.7067 118.012 53.44C117.812 54.16 117.712 54.8933 117.712 55.64C117.712 56.3733 117.812 57.14 118.012 57.94C118.225 58.74 118.545 59.4867 118.972 60.18C119.399 60.8733 119.939 61.4333 120.592 61.86C121.245 62.2867 122.019 62.5 122.912 62.5ZM131.635 63V62.34C132.142 62.3133 132.488 62.2 132.675 62C132.862 61.7867 132.962 61.5 132.975 61.14C133.002 60.7667 133.015 60.3467 133.015 59.88V51.24C133.015 50.9733 133.022 50.72 133.035 50.48C133.048 50.2267 133.062 50 133.075 49.8C132.835 49.8133 132.595 49.8267 132.355 49.84C132.115 49.8533 131.875 49.8667 131.635 49.88V49H136.135V49.66C135.642 49.6733 135.295 49.7867 135.095 50C134.908 50.2133 134.802 50.5 134.775 50.86C134.762 51.22 134.755 51.64 134.755 52.12V60.7C134.755 61.06 134.748 61.3667 134.735 61.62C134.735 61.8733 134.722 62.0867 134.695 62.26L138.435 62.2C139.275 62.1867 139.908 61.92 140.335 61.4C140.775 60.88 140.995 60.0333 140.995 58.86H141.675L141.555 63H131.635ZM142.872 67.878L142.422 67.464C142.794 66.972 143.124 66.45 143.412 65.898C143.712 65.358 143.97 64.794 144.186 64.206C144.402 63.63 144.576 63.03 144.708 62.406C144.852 61.782 144.96 61.146 145.032 60.498C145.104 59.838 145.14 59.172 145.14 58.5C145.14 57.828 145.104 57.174 145.032 56.538C144.96 55.89 144.852 55.266 144.708 54.666C144.576 54.066 144.402 53.484 144.186 52.92C143.97 52.344 143.712 51.792 143.412 51.264C143.124 50.736 142.794 50.226 142.422 49.734L142.872 49.32C143.316 49.728 143.778 50.25 144.258 50.886C144.738 51.51 145.182 52.224 145.59 53.028C145.998 53.832 146.328 54.696 146.58 55.62C146.832 56.544 146.958 57.504 146.958 58.5C146.958 59.496 146.832 60.468 146.58 61.416C146.328 62.364 145.998 63.252 145.59 64.08C145.182 64.908 144.738 65.646 144.258 66.294C143.778 66.942 143.316 67.47 142.872 67.878Z" fill="#797979"/>
<path d="M29.1611 51.238C29.1131 50.47 28.9291 49.742 28.6091 49.054C28.2891 48.366 27.8251 47.806 27.2171 47.374C26.6091 46.942 25.8331 46.726 24.8891 46.726C23.8971 46.726 23.1371 47.006 22.6091 47.566C22.0811 48.126 21.8171 48.782 21.8171 49.534C21.8171 50.206 22.0091 50.774 22.3931 51.238C22.7771 51.686 23.2731 52.086 23.8811 52.438C24.5051 52.774 25.1611 53.102 25.8491 53.422C26.4571 53.694 27.0651 53.99 27.6731 54.31C28.2811 54.614 28.8331 54.966 29.3291 55.366C29.8251 55.766 30.2171 56.246 30.5051 56.806C30.8091 57.35 30.9611 58.006 30.9611 58.774C30.9611 59.654 30.7371 60.438 30.2891 61.126C29.8571 61.814 29.2251 62.358 28.3931 62.758C27.5611 63.142 26.5451 63.334 25.3451 63.334C24.6251 63.334 23.8811 63.23 23.1131 63.022C22.3451 62.814 21.6651 62.51 21.0731 62.11L21.1931 63.142H19.9451L19.8011 58.03H20.7371C20.8171 59.438 21.3051 60.51 22.2011 61.246C23.0971 61.966 24.1771 62.326 25.4411 62.326C26.0651 62.326 26.6411 62.214 27.1691 61.99C27.6971 61.75 28.1131 61.406 28.4171 60.958C28.7371 60.51 28.8971 59.966 28.8971 59.326C28.8971 58.606 28.7051 58.006 28.3211 57.526C27.9371 57.046 27.4411 56.63 26.8331 56.278C26.2251 55.926 25.5771 55.59 24.8891 55.27C24.2811 54.998 23.6811 54.71 23.0891 54.406C22.4971 54.102 21.9531 53.758 21.4571 53.374C20.9771 52.974 20.5851 52.502 20.2811 51.958C19.9931 51.414 19.8491 50.758 19.8491 49.99C19.8491 49.574 19.9211 49.126 20.0651 48.646C20.2091 48.166 20.4571 47.71 20.8091 47.278C21.1771 46.83 21.6731 46.47 22.2971 46.198C22.9371 45.91 23.7451 45.766 24.7211 45.766C25.3291 45.766 26.0091 45.854 26.7611 46.03C27.5291 46.19 28.2411 46.51 28.8971 46.99L28.8011 45.958H30.0251V51.238H29.1611ZM39.0343 63.334C37.9143 63.334 36.8983 63.078 35.9863 62.566C35.0743 62.038 34.3463 61.318 33.8023 60.406C33.2743 59.478 33.0103 58.422 33.0103 57.238C33.0103 55.974 33.2743 54.838 33.8023 53.83C34.3303 52.822 35.0503 52.03 35.9623 51.454C36.8743 50.862 37.8983 50.566 39.0343 50.566C40.1543 50.566 41.1703 50.838 42.0823 51.382C42.9943 51.91 43.7223 52.63 44.2663 53.542C44.8103 54.454 45.0823 55.494 45.0823 56.662C45.0823 57.894 44.8103 59.022 44.2663 60.046C43.7383 61.054 43.0183 61.854 42.1063 62.446C41.1943 63.038 40.1703 63.334 39.0343 63.334ZM39.2263 62.374C40.0743 62.374 40.7463 62.134 41.2423 61.654C41.7383 61.174 42.0903 60.55 42.2983 59.782C42.5223 59.014 42.6343 58.206 42.6343 57.358C42.6343 56.638 42.5623 55.934 42.4183 55.246C42.2903 54.542 42.0823 53.91 41.7943 53.35C41.5063 52.774 41.1303 52.318 40.6663 51.982C40.2183 51.646 39.6743 51.478 39.0343 51.478C38.2023 51.478 37.5223 51.718 36.9943 52.198C36.4663 52.678 36.0743 53.302 35.8183 54.07C35.5783 54.838 35.4583 55.662 35.4583 56.542C35.4583 57.534 35.5943 58.478 35.8663 59.374C36.1383 60.254 36.5543 60.974 37.1143 61.534C37.6743 62.094 38.3783 62.374 39.2263 62.374ZM46.8813 62.23C47.3773 62.23 47.7213 62.11 47.9133 61.87C48.1053 61.614 48.2173 61.27 48.2493 60.838C48.2813 60.39 48.2973 59.878 48.2973 59.302V47.95C48.2973 47.694 48.2973 47.454 48.2973 47.23C48.3133 46.99 48.3373 46.71 48.3693 46.39C48.0813 46.406 47.7933 46.422 47.5053 46.438C47.2333 46.454 46.9533 46.47 46.6653 46.486V45.478C47.3693 45.478 47.9133 45.446 48.2973 45.382C48.6973 45.318 48.9933 45.238 49.1853 45.142C49.3933 45.046 49.5533 44.942 49.6653 44.83H50.3613L50.3853 60.406C50.3853 60.726 50.3773 61.014 50.3613 61.27C50.3453 61.51 50.3133 61.766 50.2653 62.038C50.5213 62.022 50.7693 62.014 51.0093 62.014C51.2653 61.998 51.5213 61.982 51.7773 61.966V62.95H46.8813V62.23ZM60.9564 62.95C60.9084 62.678 60.8764 62.438 60.8604 62.23C60.8444 62.022 60.8204 61.806 60.7884 61.582C60.2444 62.126 59.6524 62.558 59.0124 62.878C58.3884 63.182 57.7244 63.334 57.0204 63.334C55.8044 63.334 54.9004 63.062 54.3084 62.518C53.7164 61.958 53.4204 61.278 53.4204 60.478C53.4204 59.742 53.6444 59.11 54.0924 58.582C54.5564 58.038 55.1484 57.598 55.8684 57.262C56.6044 56.91 57.3964 56.654 58.2444 56.494C59.1084 56.318 59.9404 56.238 60.7404 56.254V54.766C60.7404 54.206 60.6924 53.678 60.5964 53.182C60.5004 52.686 60.2924 52.278 59.9724 51.958C59.6524 51.638 59.1404 51.47 58.4364 51.454C57.9724 51.438 57.4924 51.526 56.9964 51.718C56.5164 51.91 56.1644 52.238 55.9404 52.702C56.0684 52.83 56.1484 52.982 56.1804 53.158C56.2284 53.318 56.2524 53.47 56.2524 53.614C56.2524 53.806 56.1724 54.03 56.0124 54.286C55.8524 54.526 55.5724 54.638 55.1724 54.622C54.8364 54.622 54.5804 54.51 54.4044 54.286C54.2284 54.046 54.1404 53.766 54.1404 53.446C54.1404 52.902 54.3404 52.414 54.7404 51.982C55.1564 51.55 55.7244 51.206 56.4444 50.95C57.1644 50.694 57.9804 50.566 58.8924 50.566C60.2364 50.566 61.2284 50.926 61.8684 51.646C62.5084 52.35 62.8204 53.47 62.8044 55.006C62.8044 55.598 62.8044 56.198 62.8044 56.806C62.8044 57.398 62.7964 57.998 62.7804 58.606C62.7804 59.198 62.7804 59.798 62.7804 60.406C62.7804 60.662 62.7724 60.918 62.7564 61.174C62.7404 61.43 62.7164 61.718 62.6844 62.038C62.9724 62.022 63.2524 62.006 63.5244 61.99C63.8124 61.974 64.1004 61.958 64.3884 61.942V62.95H60.9564ZM60.7404 57.07C60.1964 57.086 59.6204 57.158 59.0124 57.286C58.4204 57.398 57.8684 57.574 57.3564 57.814C56.8604 58.054 56.4524 58.374 56.1324 58.774C55.8284 59.158 55.6844 59.63 55.7004 60.19C55.7324 60.782 55.9244 61.23 56.2764 61.534C56.6444 61.822 57.0764 61.966 57.5724 61.966C58.2284 61.966 58.7964 61.846 59.2764 61.606C59.7724 61.35 60.2604 60.998 60.7404 60.55C60.7244 60.374 60.7164 60.182 60.7164 59.974C60.7164 59.766 60.7164 59.55 60.7164 59.326C60.7164 59.246 60.7164 58.99 60.7164 58.558C60.7324 58.126 60.7404 57.63 60.7404 57.07ZM66.0354 62.95V62.23C66.5314 62.23 66.8754 62.11 67.0674 61.87C67.2594 61.614 67.3714 61.27 67.4034 60.838C67.4354 60.39 67.4514 59.878 67.4514 59.302L67.4754 53.83C67.4754 53.574 67.4754 53.318 67.4754 53.062C67.4914 52.806 67.5234 52.542 67.5714 52.27C67.2834 52.286 66.9954 52.302 66.7074 52.318C66.4354 52.334 66.1554 52.35 65.8674 52.366V51.358C66.5714 51.358 67.0994 51.326 67.4514 51.262C67.8194 51.198 68.0914 51.118 68.2674 51.022C68.4434 50.926 68.5874 50.822 68.6994 50.71H69.3954C69.4114 50.822 69.4194 50.95 69.4194 51.094C69.4354 51.238 69.4514 51.398 69.4674 51.574C69.4834 51.75 69.4914 51.95 69.4914 52.174C69.8434 51.87 70.2274 51.598 70.6434 51.358C71.0754 51.118 71.5234 50.926 71.9874 50.782C72.4674 50.638 72.9394 50.566 73.4034 50.566C74.7954 50.566 75.8114 51.006 76.4514 51.886C77.0914 52.75 77.4114 54.102 77.4114 55.942V60.406C77.4114 60.726 77.4034 61.014 77.3874 61.27C77.3874 61.51 77.3634 61.766 77.3154 62.038C77.5714 62.022 77.8194 62.014 78.0594 62.014C78.3154 61.998 78.5714 61.982 78.8274 61.966V62.95H73.9314V62.23C74.4274 62.23 74.7714 62.11 74.9634 61.87C75.1554 61.614 75.2674 61.27 75.2994 60.838C75.3314 60.39 75.3474 59.878 75.3474 59.302V55.942C75.3314 54.566 75.0994 53.526 74.6514 52.822C74.2194 52.118 73.5314 51.774 72.5874 51.79C72.0114 51.806 71.4434 51.958 70.8834 52.246C70.3394 52.534 69.8834 52.902 69.5154 53.35C69.5314 53.478 69.5394 53.622 69.5394 53.782C69.5394 53.942 69.5394 54.11 69.5394 54.286L69.5154 60.406C69.5154 60.726 69.5074 61.014 69.4914 61.27C69.4914 61.51 69.4674 61.766 69.4194 62.038C69.6754 62.022 69.9234 62.014 70.1634 62.014C70.4194 61.998 70.6754 61.982 70.9314 61.966V62.95H66.0354ZM87.9095 62.95C87.8615 62.678 87.8295 62.438 87.8135 62.23C87.7975 62.022 87.7735 61.806 87.7415 61.582C87.1975 62.126 86.6055 62.558 85.9655 62.878C85.3415 63.182 84.6775 63.334 83.9735 63.334C82.7575 63.334 81.8535 63.062 81.2615 62.518C80.6695 61.958 80.3735 61.278 80.3735 60.478C80.3735 59.742 80.5975 59.11 81.0455 58.582C81.5095 58.038 82.1015 57.598 82.8215 57.262C83.5575 56.91 84.3495 56.654 85.1975 56.494C86.0615 56.318 86.8935 56.238 87.6935 56.254V54.766C87.6935 54.206 87.6455 53.678 87.5495 53.182C87.4535 52.686 87.2455 52.278 86.9255 51.958C86.6055 51.638 86.0935 51.47 85.3895 51.454C84.9255 51.438 84.4455 51.526 83.9495 51.718C83.4695 51.91 83.1175 52.238 82.8935 52.702C83.0215 52.83 83.1015 52.982 83.1335 53.158C83.1815 53.318 83.2055 53.47 83.2055 53.614C83.2055 53.806 83.1255 54.03 82.9655 54.286C82.8055 54.526 82.5255 54.638 82.1255 54.622C81.7895 54.622 81.5335 54.51 81.3575 54.286C81.1815 54.046 81.0935 53.766 81.0935 53.446C81.0935 52.902 81.2935 52.414 81.6935 51.982C82.1095 51.55 82.6775 51.206 83.3975 50.95C84.1175 50.694 84.9335 50.566 85.8455 50.566C87.1895 50.566 88.1815 50.926 88.8215 51.646C89.4615 52.35 89.7735 53.47 89.7575 55.006C89.7575 55.598 89.7575 56.198 89.7575 56.806C89.7575 57.398 89.7495 57.998 89.7335 58.606C89.7335 59.198 89.7335 59.798 89.7335 60.406C89.7335 60.662 89.7255 60.918 89.7095 61.174C89.6935 61.43 89.6695 61.718 89.6375 62.038C89.9255 62.022 90.2055 62.006 90.4775 61.99C90.7655 61.974 91.0535 61.958 91.3415 61.942V62.95H87.9095ZM87.6935 57.07C87.1495 57.086 86.5735 57.158 85.9655 57.286C85.3735 57.398 84.8215 57.574 84.3095 57.814C83.8135 58.054 83.4055 58.374 83.0855 58.774C82.7815 59.158 82.6375 59.63 82.6535 60.19C82.6855 60.782 82.8775 61.23 83.2295 61.534C83.5975 61.822 84.0295 61.966 84.5255 61.966C85.1815 61.966 85.7495 61.846 86.2295 61.606C86.7255 61.35 87.2135 60.998 87.6935 60.55C87.6775 60.374 87.6695 60.182 87.6695 59.974C87.6695 59.766 87.6695 59.55 87.6695 59.326C87.6695 59.246 87.6695 58.99 87.6695 58.558C87.6855 58.126 87.6935 57.63 87.6935 57.07Z" fill="black"/>
<defs>
<linearGradient id="paint0_linear_2_55" x1="245.819" y1="27.409" x2="215.892" y2="81.1947" gradientUnits="userSpaceOnUse">
<stop stop-color="#00FFA3"/>
<stop offset="1" stop-color="#DC1FFF"/>
</linearGradient>
<linearGradient id="paint1_linear_2_55" x1="233.963" y1="20.8123" x2="204.036" y2="74.5979" gradientUnits="userSpaceOnUse">
<stop stop-color="#00FFA3"/>
<stop offset="1" stop-color="#DC1FFF"/>
</linearGradient>
<linearGradient id="paint2_linear_2_55" x1="239.853" y1="24.0896" x2="209.926" y2="77.8753" gradientUnits="userSpaceOnUse">
<stop stop-color="#00FFA3"/>
<stop offset="1" stop-color="#DC1FFF"/>
</linearGradient>
<clipPath id="clip0_2_55">
<rect width="49.0909" height="41.0045" fill="white" transform="translate(201.273 32.3363)"/>
</clipPath>
</defs>
</svg>
