<svg width="270" height="106" viewBox="0 0 270 106" fill="none" xmlns="http://www.w3.org/2000/svg">
<g clip-path="url(#clip0_4_39)">
<path fill-rule="evenodd" clip-rule="evenodd" d="M210.261 33.629L201.311 53.8541C201.276 53.9293 201.266 54.0143 201.28 54.0966C201.294 54.1789 201.332 54.2542 201.389 54.3115L225.563 79.2304C225.632 79.3012 225.723 79.3408 225.818 79.3408C225.913 79.3408 226.005 79.3012 226.074 79.2304L250.248 54.313C250.305 54.2557 250.343 54.1804 250.357 54.0981C250.371 54.0158 250.36 53.9309 250.326 53.8556L241.375 33.6305C241.346 33.5626 241.3 33.5051 241.241 33.4648C241.183 33.4245 241.115 33.4032 241.045 33.4034H210.594C210.524 33.4024 210.456 33.4232 210.397 33.4633C210.338 33.5033 210.291 33.5608 210.261 33.629Z" fill="#50AF95"/>
<path fill-rule="evenodd" clip-rule="evenodd" d="M228.924 55.9311C228.751 55.9451 227.854 56.0026 225.854 56.0026C224.263 56.0026 223.133 55.9513 222.737 55.9311C216.589 55.6401 212 54.4889 212 53.1104C212 51.732 216.589 50.5823 222.737 50.2867V54.7845C223.139 54.8156 224.29 54.8887 225.881 54.8887C227.79 54.8887 228.746 54.8031 228.918 54.786V50.2898C235.053 50.5839 239.632 51.7351 239.632 53.1104C239.632 54.4858 235.055 55.637 228.918 55.9295L228.924 55.9311ZM228.924 49.8246V45.7998H237.486V39.6623H214.175V45.7998H222.735V49.8231C215.777 50.1669 210.545 51.6496 210.545 53.4263C210.545 55.203 215.777 56.6841 222.735 57.0295V69.9269H228.923V57.0248C235.865 56.681 241.089 55.1999 241.089 53.4247C241.089 51.6496 235.869 50.1685 228.923 49.8231L228.924 49.8246Z" fill="white"/>
</g>
<path d="M26.106 65.154C26.0967 64.6033 26.0407 64.146 25.938 63.782C25.8353 63.418 25.6533 63.1473 25.392 62.97C25.14 62.7833 24.7713 62.6947 24.286 62.704H23.096L23.082 70.334C23.082 70.586 23.0773 70.8053 23.068 70.992C23.068 71.1693 23.0587 71.3187 23.04 71.44C23.236 71.4307 23.4273 71.4213 23.614 71.412C23.81 71.4027 24.006 71.3933 24.202 71.384V72H20.912V71.538C21.2667 71.5193 21.5047 71.4353 21.626 71.286C21.7567 71.1367 21.8267 70.936 21.836 70.684C21.8547 70.4227 21.864 70.1333 21.864 69.816L21.878 62.718L20.436 62.732C19.848 62.732 19.4327 62.928 19.19 63.32C18.9473 63.712 18.826 64.3233 18.826 65.154H18.308L18.392 62.2H26.554L26.638 65.154H26.106ZM27.7251 72V71.538C28.0797 71.5193 28.3224 71.44 28.4531 71.3C28.5837 71.1507 28.6537 70.95 28.6631 70.698C28.6817 70.4367 28.6911 70.1427 28.6911 69.816V63.768C28.6911 63.5813 28.6957 63.404 28.7051 63.236C28.7144 63.0587 28.7237 62.9 28.7331 62.76C28.5651 62.7693 28.3971 62.7787 28.2291 62.788C28.0611 62.7973 27.8931 62.8067 27.7251 62.816V62.2C28.2477 62.1907 28.7751 62.1813 29.3071 62.172C29.8484 62.1627 30.3897 62.1673 30.9311 62.186C31.8364 62.1953 32.5644 62.3027 33.1151 62.508C33.6751 62.704 34.0857 62.9887 34.3471 63.362C34.6084 63.726 34.7391 64.1693 34.7391 64.692C34.7484 65.056 34.6784 65.4293 34.5291 65.812C34.3891 66.1853 34.1277 66.5213 33.7451 66.82C33.3717 67.1187 32.8304 67.3427 32.1211 67.492C32.3077 67.6227 32.4711 67.7907 32.6111 67.996C32.7511 68.2013 32.9097 68.4393 33.0871 68.71L34.0391 70.208C34.1977 70.46 34.3517 70.6887 34.5011 70.894C34.6504 71.09 34.8231 71.2487 35.0191 71.37C35.2151 71.482 35.4577 71.538 35.7471 71.538V72H33.9831C33.7124 71.7573 33.4837 71.5147 33.2971 71.272C33.1197 71.0293 32.9331 70.754 32.7371 70.446L31.7991 68.948C31.6777 68.752 31.5377 68.528 31.3791 68.276C31.2297 68.0147 31.0571 67.7953 30.8611 67.618C30.7117 67.6273 30.5531 67.632 30.3851 67.632C30.2264 67.632 30.0677 67.6273 29.9091 67.618V70.334C29.9091 70.586 29.9044 70.8053 29.8951 70.992C29.8951 71.1693 29.8857 71.3187 29.8671 71.44C29.9791 71.4307 30.0911 71.426 30.2031 71.426C30.3151 71.4167 30.4271 71.4073 30.5391 71.398C30.6511 71.3887 30.7631 71.384 30.8751 71.384V72H27.7251ZM30.7771 67.1C31.2904 67.0813 31.7384 66.9973 32.1211 66.848C32.5131 66.6987 32.8211 66.4607 33.0451 66.134C33.2691 65.8073 33.3811 65.378 33.3811 64.846C33.3811 64.4913 33.3297 64.1833 33.2271 63.922C33.1337 63.6513 32.9844 63.4273 32.7791 63.25C32.5737 63.0727 32.3124 62.942 31.9951 62.858C31.6777 62.7647 31.3044 62.718 30.8751 62.718C30.5297 62.718 30.2871 62.788 30.1471 62.928C30.0164 63.068 29.9417 63.264 29.9231 63.516C29.9137 63.7587 29.9091 64.048 29.9091 64.384V67.072C30.0584 67.0813 30.1984 67.0907 30.3291 67.1C30.4691 67.1093 30.6184 67.1093 30.7771 67.1ZM44.2581 65.322C44.1648 64.4447 43.8568 63.7633 43.3341 63.278C42.8208 62.7927 42.1581 62.55 41.3461 62.55C40.8514 62.55 40.3848 62.6573 39.9461 62.872C39.5168 63.0773 39.1388 63.376 38.8121 63.768C38.4854 64.16 38.2288 64.6313 38.0421 65.182C37.8554 65.7327 37.7621 66.3533 37.7621 67.044C37.7621 67.9213 37.9301 68.696 38.2661 69.368C38.6021 70.04 39.0548 70.5627 39.6241 70.936C40.1934 71.3093 40.8234 71.496 41.5141 71.496C42.1208 71.496 42.7181 71.3607 43.3061 71.09C43.8941 70.81 44.3748 70.4087 44.7481 69.886L45.1121 70.18C44.7108 70.7307 44.2768 71.1553 43.8101 71.454C43.3434 71.7527 42.8768 71.9533 42.4101 72.056C41.9528 72.168 41.5328 72.224 41.1501 72.224C40.4501 72.224 39.8061 72.098 39.2181 71.846C38.6394 71.594 38.1354 71.244 37.7061 70.796C37.2861 70.3387 36.9594 69.8113 36.7261 69.214C36.5021 68.6073 36.3901 67.954 36.3901 67.254C36.3901 66.5913 36.4881 65.9473 36.6841 65.322C36.8894 64.6967 37.1928 64.132 37.5941 63.628C37.9954 63.124 38.4994 62.7227 39.1061 62.424C39.7221 62.1253 40.4361 61.976 41.2481 61.976C41.7708 61.976 42.2654 62.046 42.7321 62.186C43.1988 62.326 43.6468 62.5407 44.0761 62.83L44.0061 62.074H44.7621V65.322H44.2581ZM46.2134 68.01V67.03H51.1834V67.954L46.2134 68.01ZM52.3178 72C52.3178 71.5053 52.3925 71.0667 52.5418 70.684C52.7005 70.3013 52.9105 69.9513 53.1718 69.634C53.4332 69.3073 53.7272 68.9947 54.0538 68.696C54.3898 68.388 54.7305 68.066 55.0758 67.73C55.6825 67.1513 56.1212 66.6147 56.3918 66.12C56.6625 65.6253 56.7978 65.1493 56.7978 64.692C56.7978 64.3373 56.7465 63.9967 56.6438 63.67C56.5505 63.334 56.3778 63.0587 56.1258 62.844C55.8738 62.6293 55.5238 62.522 55.0758 62.522C54.6932 62.522 54.3525 62.62 54.0538 62.816C53.7552 63.0027 53.5545 63.236 53.4518 63.516C53.5452 63.6093 53.6105 63.712 53.6478 63.824C53.6852 63.9267 53.7038 64.0293 53.7038 64.132C53.7038 64.216 53.6805 64.3093 53.6338 64.412C53.5965 64.5147 53.5265 64.6033 53.4238 64.678C53.3212 64.7527 53.1858 64.79 53.0178 64.79C52.8125 64.7807 52.6538 64.7013 52.5418 64.552C52.4298 64.4027 52.3738 64.2253 52.3738 64.02C52.3738 63.824 52.4345 63.6093 52.5558 63.376C52.6772 63.1333 52.8592 62.9093 53.1018 62.704C53.3538 62.4893 53.6618 62.3167 54.0258 62.186C54.3898 62.046 54.8145 61.976 55.2998 61.976C55.6732 61.976 56.0325 62.0227 56.3778 62.116C56.7325 62.2 57.0498 62.34 57.3298 62.536C57.6098 62.732 57.8292 62.9933 57.9878 63.32C58.1558 63.6373 58.2398 64.034 58.2398 64.51C58.2398 64.7433 58.1885 64.9953 58.0858 65.266C57.9925 65.5367 57.8338 65.8307 57.6098 66.148C57.3952 66.456 57.1152 66.7873 56.7698 67.142C56.4245 67.4873 55.9998 67.8653 55.4958 68.276C54.8612 68.7987 54.3385 69.2933 53.9278 69.76C53.5265 70.2173 53.2932 70.6093 53.2278 70.936L55.7058 71.006C56.1632 71.0153 56.5645 71.0153 56.9098 71.006C57.2645 70.9967 57.5398 70.9267 57.7358 70.796C57.9412 70.656 58.0438 70.404 58.0438 70.04H58.4638L58.3798 72H52.3178ZM63.5474 72.224C62.838 72.224 62.25 72.0747 61.7834 71.776C61.3167 71.468 60.9527 71.0667 60.6914 70.572C60.43 70.068 60.2434 69.5173 60.1314 68.92C60.0287 68.3227 59.9774 67.73 59.9774 67.142C59.9774 66.554 60.0427 65.9567 60.1734 65.35C60.3134 64.7433 60.528 64.188 60.8174 63.684C61.1067 63.1707 61.48 62.76 61.9374 62.452C62.3947 62.1347 62.95 61.976 63.6034 61.976C64.2847 61.976 64.8494 62.13 65.2974 62.438C65.7547 62.746 66.114 63.152 66.3754 63.656C66.646 64.1507 66.8374 64.6967 66.9494 65.294C67.0614 65.8913 67.1174 66.484 67.1174 67.072C67.1174 67.6507 67.052 68.2433 66.9214 68.85C66.7907 69.4567 66.5854 70.0167 66.3054 70.53C66.0254 71.034 65.6567 71.4447 65.1994 71.762C64.7514 72.07 64.2007 72.224 63.5474 72.224ZM63.6314 71.678C64.0327 71.678 64.364 71.552 64.6254 71.3C64.8867 71.048 65.092 70.712 65.2414 70.292C65.4 69.872 65.512 69.41 65.5774 68.906C65.6427 68.3927 65.6754 67.8793 65.6754 67.366C65.6754 66.7967 65.6427 66.2273 65.5774 65.658C65.512 65.0887 65.4 64.566 65.2414 64.09C65.0827 63.614 64.868 63.2313 64.5974 62.942C64.3267 62.6527 63.986 62.508 63.5754 62.508C63.174 62.508 62.8334 62.634 62.5534 62.886C62.2827 63.138 62.0634 63.474 61.8954 63.894C61.7274 64.314 61.606 64.7807 61.5314 65.294C61.4567 65.8073 61.4194 66.3253 61.4194 66.848C61.4194 67.24 61.438 67.6553 61.4754 68.094C61.5127 68.5327 61.578 68.9667 61.6714 69.396C61.774 69.816 61.9094 70.1987 62.0774 70.544C62.2454 70.8893 62.4554 71.1647 62.7074 71.37C62.9594 71.5753 63.2674 71.678 63.6314 71.678Z" fill="black"/>
<path d="M31.896 36.264C31.88 35.32 31.784 34.536 31.608 33.912C31.432 33.288 31.12 32.824 30.672 32.52C30.24 32.2 29.608 32.048 28.776 32.064H26.736L26.712 45.144C26.712 45.576 26.704 45.952 26.688 46.272C26.688 46.576 26.672 46.832 26.64 47.04C26.976 47.024 27.304 47.008 27.624 46.992C27.96 46.976 28.296 46.96 28.632 46.944V48H22.992V47.208C23.6 47.176 24.008 47.032 24.216 46.776C24.44 46.52 24.56 46.176 24.576 45.744C24.608 45.296 24.624 44.8 24.624 44.256L24.648 32.088L22.176 32.112C21.168 32.112 20.456 32.448 20.04 33.12C19.624 33.792 19.416 34.84 19.416 36.264H18.528L18.672 31.2H32.664L32.808 36.264H31.896ZM39.0437 48.384C37.9397 48.384 36.9397 48.128 36.0437 47.616C35.1637 47.088 34.4677 46.352 33.9557 45.408C33.4437 44.448 33.1877 43.32 33.1877 42.024C33.1877 40.904 33.4357 39.856 33.9317 38.88C34.4437 37.904 35.1557 37.12 36.0677 36.528C36.9797 35.92 38.0357 35.616 39.2357 35.616C39.9077 35.616 40.5317 35.728 41.1077 35.952C41.6997 36.16 42.2197 36.488 42.6677 36.936C43.1157 37.368 43.4677 37.92 43.7237 38.592C43.9797 39.248 44.1077 40.024 44.1077 40.92L35.6597 41.064C35.6597 42.28 35.7877 43.352 36.0437 44.28C36.3157 45.192 36.7477 45.904 37.3397 46.416C37.9317 46.912 38.6917 47.16 39.6197 47.16C40.1157 47.16 40.6197 47.072 41.1317 46.896C41.6597 46.72 42.1477 46.48 42.5957 46.176C43.0437 45.872 43.4037 45.536 43.6757 45.168L44.2517 45.648C43.8197 46.32 43.2997 46.856 42.6917 47.256C42.0837 47.656 41.4597 47.944 40.8197 48.12C40.1797 48.296 39.5877 48.384 39.0437 48.384ZM35.7317 40.056H41.8517C41.8517 39.48 41.7637 38.928 41.5877 38.4C41.4277 37.856 41.1557 37.416 40.7717 37.08C40.3877 36.728 39.8837 36.552 39.2597 36.552C38.3317 36.552 37.5557 36.832 36.9317 37.392C36.3237 37.936 35.9237 38.824 35.7317 40.056ZM50.5914 48.384C50.2234 48.384 49.8474 48.328 49.4634 48.216C49.0794 48.12 48.7194 47.92 48.3834 47.616C48.0634 47.312 47.8074 46.872 47.6154 46.296C47.4234 45.704 47.3274 44.928 47.3274 43.968L47.3754 37.008L45.5274 37.032V36C45.9434 35.984 46.3674 35.832 46.7994 35.544C47.2314 35.24 47.6154 34.832 47.9514 34.32C48.3034 33.808 48.5434 33.248 48.6714 32.64H49.4874V36H53.5194V36.936L49.4874 36.984L49.4394 43.656C49.4394 44.376 49.4954 44.992 49.6074 45.504C49.7354 46 49.9354 46.376 50.2074 46.632C50.4794 46.888 50.8314 47.016 51.2634 47.016C51.7114 47.016 52.1274 46.888 52.5114 46.632C52.9114 46.376 53.2634 46.024 53.5674 45.576L54.2154 46.104C53.8634 46.632 53.5114 47.048 53.1594 47.352C52.8234 47.656 52.4954 47.88 52.1754 48.024C51.8554 48.184 51.5594 48.28 51.2874 48.312C51.0154 48.36 50.7834 48.384 50.5914 48.384ZM63.0647 47.28C63.5607 47.28 63.9047 47.16 64.0967 46.92C64.2887 46.664 64.4007 46.32 64.4327 45.888C64.4647 45.44 64.4807 44.928 64.4807 44.352V40.992C64.4807 39.616 64.2567 38.584 63.8087 37.896C63.3767 37.208 62.6887 36.872 61.7447 36.888C61.1527 36.904 60.5687 37.048 59.9927 37.32C59.4327 37.592 58.9767 37.944 58.6247 38.376V45.456C58.6247 45.776 58.6167 46.064 58.6007 46.32C58.5847 46.56 58.5527 46.816 58.5047 47.088C58.7607 47.072 59.0087 47.064 59.2487 47.064C59.5047 47.048 59.7607 47.032 60.0167 47.016V48H55.1207V47.28C55.6167 47.28 55.9607 47.16 56.1527 46.92C56.3447 46.664 56.4567 46.32 56.4887 45.888C56.5367 45.44 56.5607 44.928 56.5607 44.352V33C56.5607 32.744 56.5607 32.504 56.5607 32.28C56.5767 32.04 56.6007 31.76 56.6327 31.44C56.3447 31.456 56.0567 31.472 55.7687 31.488C55.4967 31.504 55.2167 31.52 54.9287 31.536V30.528C55.6327 30.528 56.1767 30.496 56.5607 30.432C56.9607 30.368 57.2567 30.288 57.4487 30.192C57.6567 30.096 57.8167 29.992 57.9287 29.88H58.6247V37.2C58.9767 36.896 59.3687 36.632 59.8007 36.408C60.2487 36.168 60.7047 35.976 61.1687 35.832C61.6487 35.688 62.1127 35.616 62.5607 35.616C63.9527 35.616 64.9527 36.056 65.5607 36.936C66.1847 37.8 66.5047 39.152 66.5207 40.992L66.5447 45.456C66.5447 45.776 66.5367 46.064 66.5207 46.32C66.5207 46.56 66.4967 46.816 66.4487 47.088C66.7047 47.072 66.9527 47.064 67.1927 47.064C67.4487 47.048 67.7047 47.032 67.9607 47.016V48H63.0647V47.28ZM75.5359 48.384C74.4319 48.384 73.4319 48.128 72.5359 47.616C71.6559 47.088 70.9599 46.352 70.4479 45.408C69.9359 44.448 69.6799 43.32 69.6799 42.024C69.6799 40.904 69.9279 39.856 70.4239 38.88C70.9359 37.904 71.6479 37.12 72.5599 36.528C73.4719 35.92 74.5279 35.616 75.7279 35.616C76.3999 35.616 77.0239 35.728 77.5999 35.952C78.1919 36.16 78.7119 36.488 79.1599 36.936C79.6079 37.368 79.9599 37.92 80.2159 38.592C80.4719 39.248 80.5999 40.024 80.5999 40.92L72.1519 41.064C72.1519 42.28 72.2799 43.352 72.5359 44.28C72.8079 45.192 73.2399 45.904 73.8319 46.416C74.4239 46.912 75.1839 47.16 76.1119 47.16C76.6079 47.16 77.1119 47.072 77.6239 46.896C78.1519 46.72 78.6399 46.48 79.0879 46.176C79.5359 45.872 79.8959 45.536 80.1679 45.168L80.7439 45.648C80.3119 46.32 79.7919 46.856 79.1839 47.256C78.5759 47.656 77.9519 47.944 77.3119 48.12C76.6719 48.296 76.0799 48.384 75.5359 48.384ZM72.2239 40.056H78.3439C78.3439 39.48 78.2559 38.928 78.0799 38.4C77.9199 37.856 77.6479 37.416 77.2639 37.08C76.8799 36.728 76.3759 36.552 75.7519 36.552C74.8239 36.552 74.0479 36.832 73.4239 37.392C72.8159 37.936 72.4159 38.824 72.2239 40.056ZM82.7357 47.28C83.2317 47.28 83.5757 47.16 83.7677 46.92C83.9597 46.664 84.0717 46.32 84.1037 45.888C84.1357 45.44 84.1517 44.928 84.1517 44.352V38.88C84.1517 38.624 84.1517 38.368 84.1517 38.112C84.1677 37.856 84.1997 37.592 84.2477 37.32C83.9597 37.336 83.6717 37.352 83.3837 37.368C83.1117 37.368 82.8317 37.376 82.5437 37.392V36.408H83.2877C83.9757 36.408 84.4477 36.344 84.7037 36.216C84.9757 36.072 85.1997 35.92 85.3757 35.76H86.0717C86.1037 36.016 86.1277 36.336 86.1437 36.72C86.1597 37.088 86.1757 37.56 86.1917 38.136C86.4317 37.736 86.7597 37.344 87.1757 36.96C87.5917 36.576 88.0557 36.256 88.5677 36C89.0957 35.744 89.6477 35.616 90.2237 35.616C90.6717 35.616 91.0637 35.736 91.3997 35.976C91.7357 36.216 91.9037 36.6 91.9037 37.128C91.9037 37.256 91.8637 37.416 91.7837 37.608C91.7037 37.784 91.5757 37.944 91.3997 38.088C91.2237 38.216 90.9917 38.28 90.7037 38.28C90.3517 38.264 90.0717 38.128 89.8637 37.872C89.6557 37.6 89.5757 37.288 89.6237 36.936C89.2237 36.92 88.8077 37.024 88.3757 37.248C87.9597 37.472 87.5677 37.784 87.1997 38.184C86.8317 38.568 86.5037 39.024 86.2157 39.552L86.2397 45.456C86.2397 45.776 86.2317 46.064 86.2157 46.32C86.2157 46.56 86.1917 46.816 86.1437 47.088C86.3997 47.072 86.6477 47.064 86.8877 47.064C87.1437 47.048 87.3997 47.032 87.6557 47.016V48H82.7357V47.28Z" fill="black"/>
<path d="M102.554 35.652C102.41 35.844 102.224 36.156 101.996 36.588C101.768 37.008 101.546 37.548 101.33 38.208C101.114 38.868 100.928 39.648 100.772 40.548C100.616 41.448 100.538 42.462 100.538 43.59C100.538 44.73 100.616 45.75 100.772 46.65C100.928 47.538 101.114 48.306 101.33 48.954C101.546 49.614 101.768 50.16 101.996 50.592C102.224 51.024 102.41 51.336 102.554 51.528L101.96 52.032C101.756 51.804 101.504 51.456 101.204 50.988C100.916 50.532 100.634 49.956 100.358 49.26C100.082 48.576 99.842 47.766 99.638 46.83C99.446 45.882 99.35 44.814 99.35 43.626C99.35 42.426 99.446 41.358 99.638 40.422C99.842 39.474 100.082 38.652 100.358 37.956C100.634 37.248 100.916 36.666 101.204 36.21C101.504 35.742 101.756 35.388 101.96 35.148L102.554 35.652ZM107.934 34.66C107.494 34.66 107.174 34.7533 106.974 34.94C106.787 35.1267 106.674 35.3467 106.634 35.6C106.594 35.84 106.574 36.0533 106.574 36.24V41.28C106.574 42.0267 106.621 42.7533 106.714 43.46C106.821 44.1533 107.014 44.78 107.294 45.34C107.574 45.9 107.987 46.3467 108.534 46.68C109.094 47.0133 109.821 47.18 110.714 47.18C111.674 47.18 112.454 46.9533 113.054 46.5C113.667 46.0467 114.114 45.42 114.394 44.62C114.687 43.82 114.841 42.9 114.854 41.86L114.914 36.24C114.914 35.9733 114.921 35.72 114.934 35.48C114.947 35.2267 114.961 35 114.974 34.8C114.734 34.8133 114.494 34.8267 114.254 34.84C114.027 34.8533 113.794 34.8667 113.554 34.88V34H117.274V34.66C116.767 34.6733 116.414 34.7867 116.214 35C116.027 35.2133 115.921 35.5 115.894 35.86C115.881 36.22 115.874 36.64 115.874 37.12L115.834 41.76C115.834 42.6267 115.741 43.4533 115.554 44.24C115.367 45.0267 115.061 45.7267 114.634 46.34C114.221 46.9533 113.667 47.44 112.974 47.8C112.294 48.1467 111.454 48.32 110.454 48.32C109.387 48.32 108.487 48.18 107.754 47.9C107.034 47.62 106.454 47.1867 106.014 46.6C105.587 46.0133 105.281 45.2733 105.094 44.38C104.907 43.4867 104.814 42.42 104.814 41.18V37.12C104.814 36.7733 104.821 36.3667 104.834 35.9C104.861 35.42 104.881 35.0533 104.894 34.8C104.654 34.8133 104.414 34.8267 104.174 34.84C103.934 34.84 103.694 34.8467 103.454 34.86V34H107.934V34.66ZM126.833 38.24C126.793 37.6 126.64 36.9933 126.373 36.42C126.106 35.8467 125.72 35.38 125.213 35.02C124.706 34.66 124.06 34.48 123.273 34.48C122.446 34.48 121.813 34.7133 121.373 35.18C120.933 35.6467 120.713 36.1933 120.713 36.82C120.713 37.38 120.873 37.8533 121.193 38.24C121.513 38.6133 121.926 38.9467 122.433 39.24C122.953 39.52 123.5 39.7933 124.073 40.06C124.58 40.2867 125.086 40.5333 125.593 40.8C126.1 41.0533 126.56 41.3467 126.973 41.68C127.386 42.0133 127.713 42.4133 127.953 42.88C128.206 43.3333 128.333 43.88 128.333 44.52C128.333 45.2533 128.146 45.9067 127.773 46.48C127.413 47.0533 126.886 47.5067 126.193 47.84C125.5 48.16 124.653 48.32 123.653 48.32C123.053 48.32 122.433 48.2333 121.793 48.06C121.153 47.8867 120.586 47.6333 120.093 47.3L120.193 48.16H119.153L119.033 43.9H119.813C119.88 45.0733 120.286 45.9667 121.033 46.58C121.78 47.18 122.68 47.48 123.733 47.48C124.253 47.48 124.733 47.3867 125.173 47.2C125.613 47 125.96 46.7133 126.213 46.34C126.48 45.9667 126.613 45.5133 126.613 44.98C126.613 44.38 126.453 43.88 126.133 43.48C125.813 43.08 125.4 42.7333 124.893 42.44C124.386 42.1467 123.846 41.8667 123.273 41.6C122.766 41.3733 122.266 41.1333 121.773 40.88C121.28 40.6267 120.826 40.34 120.413 40.02C120.013 39.6867 119.686 39.2933 119.433 38.84C119.193 38.3867 119.073 37.84 119.073 37.2C119.073 36.8533 119.133 36.48 119.253 36.08C119.373 35.68 119.58 35.3 119.873 34.94C120.18 34.5667 120.593 34.2667 121.113 34.04C121.646 33.8 122.32 33.68 123.133 33.68C123.64 33.68 124.206 33.7533 124.833 33.9C125.473 34.0333 126.066 34.3 126.613 34.7L126.533 33.84H127.553V38.24H126.833ZM130.321 47.34C130.827 47.3133 131.174 47.2 131.361 47C131.547 46.7867 131.647 46.5 131.661 46.14C131.687 45.7667 131.701 45.3467 131.701 44.88V36.24C131.701 35.9733 131.707 35.72 131.721 35.48C131.734 35.2267 131.747 35 131.761 34.8C131.521 34.8133 131.281 34.8267 131.041 34.84C130.801 34.8533 130.561 34.8667 130.321 34.88V34L135.041 33.98C136.241 33.98 137.341 34.12 138.341 34.4C139.341 34.68 140.201 35.1133 140.921 35.7C141.654 36.2733 142.214 37.0067 142.601 37.9C143.001 38.78 143.201 39.82 143.201 41.02C143.201 41.94 143.041 42.82 142.721 43.66C142.401 44.5 141.921 45.2467 141.281 45.9C140.641 46.54 139.841 47.0533 138.881 47.44C137.934 47.8133 136.834 48 135.581 48H130.321V47.34ZM133.441 45.64C133.441 46 133.434 46.3067 133.421 46.56C133.421 46.8133 133.407 47.0267 133.381 47.2C133.741 47.2133 134.067 47.2267 134.361 47.24C134.667 47.24 134.921 47.24 135.121 47.24C135.334 47.24 135.467 47.24 135.521 47.24C136.387 47.24 137.167 47.08 137.861 46.76C138.567 46.44 139.167 46 139.661 45.44C140.167 44.8667 140.554 44.2 140.821 43.44C141.101 42.6667 141.241 41.8333 141.241 40.94C141.241 39.6733 141.007 38.58 140.541 37.66C140.087 36.7267 139.387 36.0067 138.441 35.5C137.494 34.98 136.287 34.72 134.821 34.72C134.327 34.72 133.981 34.82 133.781 35.02C133.594 35.22 133.487 35.5 133.461 35.86C133.447 36.22 133.441 36.64 133.441 37.12V45.64ZM155.703 38.22C155.69 37.4333 155.61 36.78 155.463 36.26C155.316 35.74 155.056 35.3533 154.683 35.1C154.323 34.8333 153.796 34.7067 153.103 34.72H151.403L151.383 45.62C151.383 45.98 151.376 46.2933 151.363 46.56C151.363 46.8133 151.35 47.0267 151.323 47.2C151.603 47.1867 151.876 47.1733 152.143 47.16C152.423 47.1467 152.703 47.1333 152.983 47.12V48H148.283V47.34C148.79 47.3133 149.13 47.1933 149.303 46.98C149.49 46.7667 149.59 46.48 149.603 46.12C149.63 45.7467 149.643 45.3333 149.643 44.88L149.663 34.74L147.603 34.76C146.763 34.76 146.17 35.04 145.823 35.6C145.476 36.16 145.303 37.0333 145.303 38.22H144.563L144.683 34H156.343L156.463 38.22H155.703ZM157.798 35.148C157.99 35.388 158.23 35.742 158.518 36.21C158.818 36.666 159.106 37.248 159.382 37.956C159.67 38.652 159.91 39.474 160.102 40.422C160.306 41.358 160.408 42.426 160.408 43.626C160.408 44.814 160.306 45.882 160.102 46.83C159.91 47.766 159.67 48.576 159.382 49.26C159.106 49.956 158.818 50.532 158.518 50.988C158.23 51.456 157.99 51.804 157.798 52.032L157.204 51.528C157.348 51.336 157.534 51.024 157.762 50.592C157.99 50.16 158.206 49.614 158.41 48.954C158.626 48.306 158.812 47.538 158.968 46.65C159.124 45.75 159.202 44.73 159.202 43.59C159.202 42.462 159.124 41.448 158.968 40.548C158.812 39.648 158.626 38.868 158.41 38.208C158.206 37.548 157.99 37.008 157.762 36.588C157.534 36.156 157.348 35.844 157.204 35.652L157.798 35.148Z" fill="#797979"/>
<defs>
<clipPath id="clip0_4_39">
<rect width="49.0909" height="45.9375" fill="white" transform="translate(201.273 33.4034)"/>
</clipPath>
</defs>
</svg>
